# MagicaVoxel @ Ephtracy

# material
mtllib chicken.mtl
usemtl palette

# normals
vn -1 0 0
vn 1 0 0
vn 0 0 1
vn 0 0 -1
vn 0 -1 0
vn 0 1 0

# texcoords
vt 0.845703 0.5
vt 0.935547 0.5
vt 0.951172 0.5
vt 0.970703 0.5

# verts
v -6 0 3
v -6 0 -0
v -6 1 3
v -6 1 -0
v -4 0 2
v -4 0 1
v -4 1 2
v -4 1 1
v -4 1 -0
v -4 6 4
v -4 6 1
v -4 6 -0
v -4 6 -4
v -4 8 -4
v -4 8 -5
v -4 12 -4
v -4 12 -5
v -4 13 4
v -4 13 -4
v -3 10 -5
v -3 10 -9
v -3 12 -5
v -3 12 -9
v -2 0 3
v -2 0 1
v -2 1 3
v -2 1 1
v -2 11 5
v -2 11 4
v -2 13 4
v -2 13 3
v -2 15 8
v -2 15 7
v -2 15 5
v -2 16 8
v -2 16 7
v -2 16 6
v -2 16 5
v -2 17 6
v -2 17 5
v -2 18 7
v -2 18 3
v -1 14 7
v -1 14 6
v -1 15 7
v -1 15 6
v -1 18 6
v -1 18 4
v -1 19 6
v -1 19 4
v 1 0 3
v 1 0 -0
v 1 1 3
v 1 1 -0
v 3 0 2
v 3 0 1
v 3 1 2
v 3 1 1
v 3 1 -0
v 3 6 1
v 3 6 -0
v 5 0 3
v 5 0 1
v 5 1 3
v 5 1 1
v -5 0 3
v -5 0 1
v -5 1 3
v -5 1 1
v -3 0 2
v -3 0 1
v -3 1 2
v -3 1 1
v -3 1 -0
v -3 6 1
v -3 6 -0
v -1 0 3
v -1 0 -0
v -1 1 3
v -1 1 -0
v 1 14 7
v 1 14 6
v 1 15 7
v 1 15 6
v 1 18 6
v 1 18 4
v 1 19 6
v 1 19 4
v 2 0 3
v 2 0 1
v 2 1 3
v 2 1 1
v 2 11 5
v 2 11 4
v 2 13 4
v 2 13 3
v 2 15 8
v 2 15 7
v 2 15 5
v 2 16 8
v 2 16 7
v 2 16 6
v 2 16 5
v 2 17 6
v 2 17 5
v 2 18 7
v 2 18 3
v 3 10 -5
v 3 10 -9
v 3 12 -5
v 3 12 -9
v 4 0 2
v 4 0 1
v 4 1 2
v 4 1 1
v 4 1 -0
v 4 6 4
v 4 6 1
v 4 6 -0
v 4 6 -4
v 4 8 -4
v 4 8 -5
v 4 12 -4
v 4 12 -5
v 4 13 4
v 4 13 -4
v 6 0 3
v 6 0 -0
v 6 1 3
v 6 1 -0
v -2 15 8
v -2 16 8
v 2 15 8
v 2 16 8
v -2 16 7
v -2 18 7
v -1 14 7
v -1 15 7
v 1 14 7
v 1 15 7
v 2 16 7
v 2 18 7
v -1 18 6
v -1 19 6
v 1 18 6
v 1 19 6
v -2 11 5
v -2 15 5
v 2 11 5
v 2 15 5
v -4 6 4
v -4 13 4
v -2 11 4
v -2 13 4
v 2 11 4
v 2 13 4
v 4 6 4
v 4 13 4
v -6 0 3
v -6 1 3
v -5 0 3
v -5 1 3
v -2 0 3
v -2 1 3
v -1 0 3
v -1 1 3
v 1 0 3
v 1 1 3
v 2 0 3
v 2 1 3
v 5 0 3
v 5 1 3
v 6 0 3
v 6 1 3
v -4 0 2
v -4 1 2
v -3 0 2
v -3 1 2
v 3 0 2
v 3 1 2
v 4 0 2
v 4 1 2
v -5 0 1
v -5 1 1
v -4 0 1
v -4 1 1
v -4 6 1
v -3 0 1
v -3 1 1
v -3 6 1
v -2 0 1
v -2 1 1
v 2 0 1
v 2 1 1
v 3 0 1
v 3 1 1
v 3 6 1
v 4 0 1
v 4 1 1
v 4 6 1
v 5 0 1
v 5 1 1
v -1 14 6
v -1 15 6
v 1 14 6
v 1 15 6
v -1 18 4
v -1 19 4
v 1 18 4
v 1 19 4
v -2 13 3
v -2 18 3
v 2 13 3
v 2 18 3
v -6 0 -0
v -6 1 -0
v -4 1 -0
v -4 6 -0
v -3 1 -0
v -3 6 -0
v -1 0 -0
v -1 1 -0
v 1 0 -0
v 1 1 -0
v 3 1 -0
v 3 6 -0
v 4 1 -0
v 4 6 -0
v 6 0 -0
v 6 1 -0
v -4 6 -4
v -4 8 -4
v -4 12 -4
v -4 13 -4
v 4 6 -4
v 4 8 -4
v 4 12 -4
v 4 13 -4
v -4 8 -5
v -4 12 -5
v -3 10 -5
v -3 12 -5
v 3 10 -5
v 3 12 -5
v 4 8 -5
v 4 12 -5
v -3 10 -9
v -3 12 -9
v 3 10 -9
v 3 12 -9
v -6 0 3
v -5 0 3
v -2 0 3
v -1 0 3
v 1 0 3
v 2 0 3
v 5 0 3
v 6 0 3
v -4 0 2
v -3 0 2
v 3 0 2
v 4 0 2
v -5 0 1
v -4 0 1
v -3 0 1
v -2 0 1
v 2 0 1
v 3 0 1
v 4 0 1
v 5 0 1
v -6 0 -0
v -1 0 -0
v 1 0 -0
v 6 0 -0
v -4 6 4
v 4 6 4
v -4 6 1
v -3 6 1
v 3 6 1
v 4 6 1
v -4 6 -0
v -3 6 -0
v 3 6 -0
v 4 6 -0
v -4 6 -4
v 4 6 -4
v -4 8 -4
v 4 8 -4
v -4 8 -5
v 4 8 -5
v -3 10 -5
v 3 10 -5
v -3 10 -9
v 3 10 -9
v -2 11 5
v 2 11 5
v -2 11 4
v 2 11 4
v -1 14 7
v 1 14 7
v -1 14 6
v 1 14 6
v -2 15 8
v 2 15 8
v -2 15 7
v -1 15 7
v 1 15 7
v 2 15 7
v -1 15 6
v 1 15 6
v -2 15 5
v 2 15 5
v -6 1 3
v -5 1 3
v -2 1 3
v -1 1 3
v 1 1 3
v 2 1 3
v 5 1 3
v 6 1 3
v -4 1 2
v -3 1 2
v 3 1 2
v 4 1 2
v -5 1 1
v -4 1 1
v -3 1 1
v -2 1 1
v 2 1 1
v 3 1 1
v 4 1 1
v 5 1 1
v -6 1 -0
v -4 1 -0
v -3 1 -0
v -1 1 -0
v 1 1 -0
v 3 1 -0
v 4 1 -0
v 6 1 -0
v -4 12 -4
v 4 12 -4
v -4 12 -5
v -3 12 -5
v 3 12 -5
v 4 12 -5
v -3 12 -9
v 3 12 -9
v -4 13 4
v -2 13 4
v 2 13 4
v 4 13 4
v -2 13 3
v 2 13 3
v -4 13 -4
v 4 13 -4
v -2 16 8
v 2 16 8
v -2 16 7
v 2 16 7
v -2 18 7
v 2 18 7
v -1 18 6
v 1 18 6
v -1 18 4
v 1 18 4
v -2 18 3
v 2 18 3
v -1 19 6
v 1 19 6
v -1 19 4
v 1 19 4

# faces
f 3/1/1 2/1/1 1/1/1
f 4/1/1 2/1/1 3/1/1
f 7/1/1 6/1/1 5/1/1
f 8/1/1 6/1/1 7/1/1
f 11/1/1 9/1/1 8/1/1
f 12/1/1 9/1/1 11/1/1
f 14/4/1 11/4/1 10/4/1
f 14/4/1 13/4/1 12/4/1
f 14/4/1 12/4/1 11/4/1
f 16/4/1 14/4/1 10/4/1
f 16/4/1 15/4/1 14/4/1
f 17/4/1 15/4/1 16/4/1
f 18/4/1 16/4/1 10/4/1
f 19/4/1 16/4/1 18/4/1
f 22/4/1 21/4/1 20/4/1
f 23/4/1 21/4/1 22/4/1
f 26/1/1 25/1/1 24/1/1
f 27/1/1 25/1/1 26/1/1
f 30/4/1 29/4/1 28/4/1
f 34/4/1 30/4/1 28/4/1
f 34/4/1 31/4/1 30/4/1
f 35/1/1 33/1/1 32/1/1
f 36/4/1 34/4/1 33/4/1
f 36/1/1 33/1/1 35/1/1
f 37/4/1 34/4/1 36/4/1
f 38/4/1 31/4/1 34/4/1
f 38/4/1 34/4/1 37/4/1
f 39/4/1 37/4/1 36/4/1
f 39/2/1 38/2/1 37/2/1
f 40/4/1 31/4/1 38/4/1
f 40/2/1 38/2/1 39/2/1
f 41/4/1 39/4/1 36/4/1
f 41/4/1 40/4/1 39/4/1
f 42/4/1 31/4/1 40/4/1
f 42/4/1 40/4/1 41/4/1
f 45/3/1 44/3/1 43/3/1
f 46/3/1 44/3/1 45/3/1
f 49/3/1 48/3/1 47/3/1
f 50/3/1 48/3/1 49/3/1
f 53/1/1 52/1/1 51/1/1
f 54/1/1 52/1/1 53/1/1
f 57/1/1 56/1/1 55/1/1
f 58/1/1 56/1/1 57/1/1
f 60/1/1 59/1/1 58/1/1
f 61/1/1 59/1/1 60/1/1
f 64/1/1 63/1/1 62/1/1
f 65/1/1 63/1/1 64/1/1
f 66/1/2 67/1/2 68/1/2
f 68/1/2 67/1/2 69/1/2
f 70/1/2 71/1/2 72/1/2
f 72/1/2 71/1/2 73/1/2
f 73/1/2 74/1/2 75/1/2
f 75/1/2 74/1/2 76/1/2
f 77/1/2 78/1/2 79/1/2
f 79/1/2 78/1/2 80/1/2
f 81/3/2 82/3/2 83/3/2
f 83/3/2 82/3/2 84/3/2
f 85/3/2 86/3/2 87/3/2
f 87/3/2 86/3/2 88/3/2
f 89/1/2 90/1/2 91/1/2
f 91/1/2 90/1/2 92/1/2
f 93/4/2 94/4/2 95/4/2
f 93/4/2 95/4/2 99/4/2
f 95/4/2 96/4/2 99/4/2
f 97/1/2 98/1/2 100/1/2
f 98/4/2 99/4/2 101/4/2
f 100/1/2 98/1/2 101/1/2
f 101/4/2 99/4/2 102/4/2
f 99/4/2 96/4/2 103/4/2
f 102/4/2 99/4/2 103/4/2
f 101/4/2 102/4/2 104/4/2
f 102/2/2 103/2/2 104/2/2
f 103/4/2 96/4/2 105/4/2
f 104/2/2 103/2/2 105/2/2
f 101/4/2 104/4/2 106/4/2
f 104/4/2 105/4/2 106/4/2
f 105/4/2 96/4/2 107/4/2
f 106/4/2 105/4/2 107/4/2
f 108/4/2 109/4/2 110/4/2
f 110/4/2 109/4/2 111/4/2
f 112/1/2 113/1/2 114/1/2
f 114/1/2 113/1/2 115/1/2
f 115/1/2 116/1/2 118/1/2
f 118/1/2 116/1/2 119/1/2
f 117/4/2 118/4/2 121/4/2
f 119/4/2 120/4/2 121/4/2
f 118/4/2 119/4/2 121/4/2
f 117/4/2 121/4/2 123/4/2
f 121/4/2 122/4/2 123/4/2
f 123/4/2 122/4/2 124/4/2
f 117/4/2 123/4/2 125/4/2
f 125/4/2 123/4/2 126/4/2
f 127/1/2 128/1/2 129/1/2
f 129/1/2 128/1/2 130/1/2
f 133/1/3 132/1/3 131/1/3
f 134/1/3 132/1/3 133/1/3
f 139/3/3 138/3/3 137/3/3
f 140/3/3 138/3/3 139/3/3
f 141/4/3 136/4/3 135/4/3
f 142/4/3 136/4/3 141/4/3
f 145/3/3 144/3/3 143/3/3
f 146/3/3 144/3/3 145/3/3
f 149/4/3 148/4/3 147/4/3
f 150/4/3 148/4/3 149/4/3
f 153/4/3 152/4/3 151/4/3
f 154/4/3 152/4/3 153/4/3
f 155/4/3 153/4/3 151/4/3
f 157/4/3 155/4/3 151/4/3
f 157/4/3 156/4/3 155/4/3
f 158/4/3 156/4/3 157/4/3
f 161/1/3 160/1/3 159/1/3
f 162/1/3 160/1/3 161/1/3
f 165/1/3 164/1/3 163/1/3
f 166/1/3 164/1/3 165/1/3
f 169/1/3 168/1/3 167/1/3
f 170/1/3 168/1/3 169/1/3
f 173/1/3 172/1/3 171/1/3
f 174/1/3 172/1/3 173/1/3
f 177/1/3 176/1/3 175/1/3
f 178/1/3 176/1/3 177/1/3
f 181/1/3 180/1/3 179/1/3
f 182/1/3 180/1/3 181/1/3
f 185/1/3 184/1/3 183/1/3
f 186/1/3 184/1/3 185/1/3
f 189/1/3 187/1/3 186/1/3
f 190/1/3 187/1/3 189/1/3
f 191/1/3 189/1/3 188/1/3
f 192/1/3 189/1/3 191/1/3
f 195/1/3 194/1/3 193/1/3
f 196/1/3 194/1/3 195/1/3
f 199/1/3 197/1/3 196/1/3
f 200/1/3 197/1/3 199/1/3
f 201/1/3 199/1/3 198/1/3
f 202/1/3 199/1/3 201/1/3
f 203/3/4 204/3/4 205/3/4
f 205/3/4 204/3/4 206/3/4
f 207/3/4 208/3/4 209/3/4
f 209/3/4 208/3/4 210/3/4
f 211/4/4 212/4/4 213/4/4
f 213/4/4 212/4/4 214/4/4
f 215/1/4 216/1/4 217/1/4
f 215/1/4 217/1/4 219/1/4
f 217/1/4 218/1/4 219/1/4
f 219/1/4 218/1/4 220/1/4
f 215/1/4 219/1/4 221/1/4
f 221/1/4 219/1/4 222/1/4
f 223/1/4 224/1/4 225/1/4
f 223/1/4 225/1/4 227/1/4
f 225/1/4 226/1/4 227/1/4
f 227/1/4 226/1/4 228/1/4
f 223/1/4 227/1/4 229/1/4
f 229/1/4 227/1/4 230/1/4
f 231/4/4 232/4/4 235/4/4
f 235/4/4 232/4/4 236/4/4
f 233/4/4 234/4/4 237/4/4
f 237/4/4 234/4/4 238/4/4
f 239/4/4 240/4/4 241/4/4
f 241/4/4 240/4/4 242/4/4
f 239/4/4 241/4/4 243/4/4
f 239/4/4 243/4/4 245/4/4
f 243/4/4 244/4/4 245/4/4
f 245/4/4 244/4/4 246/4/4
f 247/4/4 248/4/4 249/4/4
f 249/4/4 248/4/4 250/4/4
f 263/1/5 252/1/5 251/1/5
f 264/1/5 260/1/5 259/1/5
f 265/1/5 260/1/5 264/1/5
f 266/1/5 254/1/5 253/1/5
f 267/1/5 256/1/5 255/1/5
f 268/1/5 262/1/5 261/1/5
f 269/1/5 262/1/5 268/1/5
f 270/1/5 258/1/5 257/1/5
f 271/1/5 265/1/5 264/1/5
f 271/1/5 266/1/5 265/1/5
f 271/1/5 263/1/5 251/1/5
f 271/1/5 264/1/5 263/1/5
f 272/1/5 254/1/5 266/1/5
f 272/1/5 266/1/5 271/1/5
f 273/1/5 267/1/5 255/1/5
f 273/1/5 270/1/5 269/1/5
f 273/1/5 269/1/5 268/1/5
f 273/1/5 268/1/5 267/1/5
f 274/1/5 258/1/5 270/1/5
f 274/1/5 270/1/5 273/1/5
f 277/4/5 276/4/5 275/4/5
f 278/4/5 276/4/5 277/4/5
f 279/4/5 276/4/5 278/4/5
f 280/4/5 276/4/5 279/4/5
f 282/4/5 279/4/5 278/4/5
f 283/4/5 279/4/5 282/4/5
f 285/4/5 282/4/5 281/4/5
f 285/4/5 284/4/5 283/4/5
f 285/4/5 283/4/5 282/4/5
f 286/4/5 284/4/5 285/4/5
f 289/4/5 288/4/5 287/4/5
f 290/4/5 288/4/5 289/4/5
f 293/4/5 292/4/5 291/4/5
f 294/4/5 292/4/5 293/4/5
f 297/4/5 296/4/5 295/4/5
f 298/4/5 296/4/5 297/4/5
f 301/3/5 300/3/5 299/3/5
f 302/3/5 300/3/5 301/3/5
f 305/1/5 304/1/5 303/1/5
f 306/1/5 304/1/5 305/1/5
f 307/1/5 304/1/5 306/1/5
f 308/1/5 304/1/5 307/1/5
f 309/4/5 306/4/5 305/4/5
f 310/4/5 308/4/5 307/4/5
f 311/4/5 309/4/5 305/4/5
f 311/4/5 310/4/5 309/4/5
f 312/4/5 308/4/5 310/4/5
f 312/4/5 310/4/5 311/4/5
f 313/1/6 314/1/6 325/1/6
f 321/1/6 322/1/6 326/1/6
f 326/1/6 322/1/6 327/1/6
f 315/1/6 316/1/6 328/1/6
f 317/1/6 318/1/6 329/1/6
f 323/1/6 324/1/6 330/1/6
f 330/1/6 324/1/6 331/1/6
f 319/1/6 320/1/6 332/1/6
f 313/1/6 325/1/6 333/1/6
f 325/1/6 326/1/6 333/1/6
f 333/1/6 326/1/6 334/1/6
f 327/1/6 328/1/6 335/1/6
f 328/1/6 316/1/6 336/1/6
f 335/1/6 328/1/6 336/1/6
f 317/1/6 329/1/6 337/1/6
f 329/1/6 330/1/6 337/1/6
f 337/1/6 330/1/6 338/1/6
f 331/1/6 332/1/6 339/1/6
f 332/1/6 320/1/6 340/1/6
f 339/1/6 332/1/6 340/1/6
f 341/4/6 342/4/6 343/4/6
f 343/4/6 342/4/6 344/4/6
f 344/4/6 342/4/6 345/4/6
f 345/4/6 342/4/6 346/4/6
f 344/4/6 345/4/6 347/4/6
f 347/4/6 345/4/6 348/4/6
f 349/4/6 350/4/6 353/4/6
f 351/4/6 352/4/6 354/4/6
f 349/4/6 353/4/6 355/4/6
f 353/4/6 354/4/6 355/4/6
f 354/4/6 352/4/6 356/4/6
f 355/4/6 354/4/6 356/4/6
f 357/1/6 358/1/6 359/1/6
f 359/1/6 358/1/6 360/1/6
f 361/4/6 362/4/6 363/4/6
f 363/4/6 362/4/6 364/4/6
f 361/4/6 363/4/6 365/4/6
f 364/4/6 362/4/6 366/4/6
f 361/4/6 365/4/6 367/4/6
f 365/4/6 366/4/6 367/4/6
f 366/4/6 362/4/6 368/4/6
f 367/4/6 366/4/6 368/4/6
f 369/3/6 370/3/6 371/3/6
f 371/3/6 370/3/6 372/3/6
