# MagicaVoxel @ Ephtracy

# material
mtllib pig.mtl
usemtl palette

# normals
vn -1 0 0
vn 1 0 0
vn 0 0 1
vn 0 0 -1
vn 0 -1 0
vn 0 1 0

# texcoords
vt 0.0605469 0.5
vt 0.533203 0.5
vt 0.537109 0.5
vt 0.873047 0.5

# verts
v -14 12 2
v -14 12 -0
v -14 13 2
v -14 13 -0
v -12 12 2
v -12 12 1
v -12 13 1
v -12 14 2
v -12 14 1
v -11 13 1
v -11 13 -0
v -11 14 1
v -11 14 -0
v -9 6 7
v -9 6 -6
v -9 7 8
v -9 7 7
v -9 7 -6
v -9 7 -7
v -9 12 8
v -9 12 7
v -9 12 -6
v -9 12 -7
v -9 13 7
v -9 13 6
v -9 13 1
v -9 13 -0
v -9 13 -5
v -9 13 -6
v -9 14 6
v -9 14 1
v -9 14 -0
v -9 14 -5
v -7 0 5
v -7 0 3
v -7 0 -3
v -7 0 -5
v -7 1 5
v -7 1 3
v -7 1 -3
v -7 1 -5
v -7 6 5
v -7 6 3
v -7 6 -3
v -7 6 -5
v 5 0 5
v 5 0 3
v 5 0 -3
v 5 0 -5
v 5 1 5
v 5 1 3
v 5 1 -3
v 5 1 -5
v 5 6 5
v 5 6 3
v 5 6 -3
v 5 6 -5
v 5 14 5
v 5 14 -4
v 5 15 5
v 5 15 -4
v 8 15 5
v 8 15 4
v 8 15 -3
v 8 15 -4
v 8 16 5
v 8 16 4
v 8 16 -3
v 8 16 -4
v 9 16 5
v 9 16 4
v 9 16 -3
v 9 16 -4
v 9 17 5
v 9 17 4
v 9 17 -3
v 9 17 -4
v -13 12 2
v -13 12 1
v -13 13 2
v -13 13 1
v -11 12 2
v -11 12 -0
v -11 13 2
v -11 13 -0
v -10 13 2
v -10 13 1
v -10 14 2
v -10 14 1
v -5 0 5
v -5 0 3
v -5 0 -3
v -5 0 -5
v -5 1 5
v -5 1 3
v -5 1 -3
v -5 1 -5
v -5 6 5
v -5 6 3
v -5 6 -3
v -5 6 -5
v 7 0 5
v 7 0 3
v 7 0 -3
v 7 0 -5
v 7 1 5
v 7 1 3
v 7 1 -3
v 7 1 -5
v 7 6 7
v 7 6 5
v 7 6 3
v 7 6 -3
v 7 6 -5
v 7 6 -6
v 7 7 8
v 7 7 7
v 7 7 -6
v 7 7 -7
v 7 9 5
v 7 9 -4
v 7 12 8
v 7 12 7
v 7 12 -6
v 7 12 -7
v 7 13 7
v 7 13 6
v 7 13 -5
v 7 13 -6
v 7 14 6
v 7 14 5
v 7 14 -4
v 7 14 -5
v 10 16 5
v 10 16 4
v 10 16 -3
v 10 16 -4
v 10 17 5
v 10 17 4
v 10 17 -3
v 10 17 -4
v 11 15 5
v 11 15 4
v 11 15 -3
v 11 15 -4
v 11 16 5
v 11 16 4
v 11 16 -3
v 11 16 -4
v 12 9 5
v 12 9 3
v 12 9 -2
v 12 9 -4
v 12 12 4
v 12 12 3
v 12 12 -2
v 12 12 -3
v 12 14 4
v 12 14 3
v 12 14 -2
v 12 14 -3
v 12 15 5
v 12 15 -4
v 13 9 3
v 13 9 -2
v 13 10 2
v 13 10 1
v 13 10 -0
v 13 10 -1
v 13 11 2
v 13 11 1
v 13 11 -0
v 13 11 -1
v 13 12 3
v 13 12 -2
v -9 7 8
v -9 12 8
v 7 7 8
v 7 12 8
v -9 6 7
v -9 7 7
v -9 12 7
v -9 13 7
v 7 6 7
v 7 7 7
v 7 12 7
v 7 13 7
v -9 13 6
v -9 14 6
v 7 13 6
v 7 14 6
v -7 0 5
v -7 1 5
v -7 6 5
v -5 0 5
v -5 1 5
v -5 6 5
v 5 0 5
v 5 1 5
v 5 6 5
v 5 14 5
v 5 15 5
v 7 0 5
v 7 1 5
v 7 6 5
v 7 9 5
v 7 14 5
v 8 15 5
v 8 16 5
v 9 16 5
v 9 17 5
v 10 16 5
v 10 17 5
v 11 15 5
v 11 16 5
v 12 9 5
v 12 15 5
v 12 9 3
v 12 12 3
v 13 9 3
v 13 12 3
v -14 12 2
v -14 13 2
v -13 12 2
v -13 13 2
v -12 12 2
v -12 14 2
v -11 12 2
v -11 13 2
v -10 13 2
v -10 14 2
v -13 12 1
v -13 13 1
v -12 12 1
v -12 13 1
v -10 13 1
v -10 14 1
v -9 13 1
v -9 14 1
v -7 0 -3
v -7 1 -3
v -7 6 -3
v -5 0 -3
v -5 1 -3
v -5 6 -3
v 5 0 -3
v 5 1 -3
v 5 6 -3
v 7 0 -3
v 7 1 -3
v 7 6 -3
v 8 15 -3
v 8 16 -3
v 9 16 -3
v 9 17 -3
v 10 16 -3
v 10 17 -3
v 11 15 -3
v 11 16 -3
v 8 15 4
v 8 16 4
v 9 16 4
v 9 17 4
v 10 16 4
v 10 17 4
v 11 15 4
v 11 16 4
v -7 0 3
v -7 1 3
v -7 6 3
v -5 0 3
v -5 1 3
v -5 6 3
v 5 0 3
v 5 1 3
v 5 6 3
v 7 0 3
v 7 1 3
v 7 6 3
v -12 13 1
v -12 14 1
v -11 13 1
v -11 14 1
v -14 12 -0
v -14 13 -0
v -11 12 -0
v -11 13 -0
v -11 14 -0
v -9 13 -0
v -9 14 -0
v 12 9 -2
v 12 12 -2
v 13 9 -2
v 13 12 -2
v 5 14 -4
v 5 15 -4
v 7 9 -4
v 7 14 -4
v 8 15 -4
v 8 16 -4
v 9 16 -4
v 9 17 -4
v 10 16 -4
v 10 17 -4
v 11 15 -4
v 11 16 -4
v 12 9 -4
v 12 15 -4
v -9 13 -5
v -9 14 -5
v -7 0 -5
v -7 1 -5
v -7 6 -5
v -5 0 -5
v -5 1 -5
v -5 6 -5
v 5 0 -5
v 5 1 -5
v 5 6 -5
v 7 0 -5
v 7 1 -5
v 7 6 -5
v 7 13 -5
v 7 14 -5
v -9 6 -6
v -9 7 -6
v -9 12 -6
v -9 13 -6
v 7 6 -6
v 7 7 -6
v 7 12 -6
v 7 13 -6
v -9 7 -7
v -9 12 -7
v 7 7 -7
v 7 12 -7
v -7 0 5
v -5 0 5
v 5 0 5
v 7 0 5
v -7 0 3
v -5 0 3
v 5 0 3
v 7 0 3
v -7 0 -3
v -5 0 -3
v 5 0 -3
v 7 0 -3
v -7 0 -5
v -5 0 -5
v 5 0 -5
v 7 0 -5
v -9 6 7
v 7 6 7
v -7 6 5
v -5 6 5
v 5 6 5
v 7 6 5
v -7 6 3
v -5 6 3
v 5 6 3
v 7 6 3
v -7 6 -3
v -5 6 -3
v 5 6 -3
v 7 6 -3
v -7 6 -5
v -5 6 -5
v 5 6 -5
v 7 6 -5
v -9 6 -6
v 7 6 -6
v -9 7 8
v 7 7 8
v -9 7 7
v 7 7 7
v -9 7 -6
v 7 7 -6
v -9 7 -7
v 7 7 -7
v 7 9 5
v 12 9 5
v 12 9 3
v 13 9 3
v 12 9 -2
v 13 9 -2
v 7 9 -4
v 12 9 -4
v -14 12 2
v -13 12 2
v -12 12 2
v -11 12 2
v -13 12 1
v -12 12 1
v -14 12 -0
v -11 12 -0
v -11 13 2
v -10 13 2
v -10 13 1
v -9 13 1
v -11 13 -0
v -9 13 -0
v -9 12 8
v 7 12 8
v -9 12 7
v 7 12 7
v 12 12 3
v 13 12 3
v 12 12 -2
v 13 12 -2
v -9 12 -6
v 7 12 -6
v -9 12 -7
v 7 12 -7
v -9 13 7
v 7 13 7
v -9 13 6
v 7 13 6
v -14 13 2
v -13 13 2
v -13 13 1
v -12 13 1
v -11 13 1
v -14 13 -0
v -11 13 -0
v -9 13 -5
v 7 13 -5
v -9 13 -6
v 7 13 -6
v -9 14 6
v 7 14 6
v 5 14 5
v 7 14 5
v -12 14 2
v -10 14 2
v -12 14 1
v -11 14 1
v -10 14 1
v -9 14 1
v -11 14 -0
v -9 14 -0
v 5 14 -4
v 7 14 -4
v -9 14 -5
v 7 14 -5
v 5 15 5
v 8 15 5
v 11 15 5
v 12 15 5
v 8 15 4
v 11 15 4
v 8 15 -3
v 11 15 -3
v 5 15 -4
v 8 15 -4
v 11 15 -4
v 12 15 -4
v 8 16 5
v 9 16 5
v 10 16 5
v 11 16 5
v 8 16 4
v 9 16 4
v 10 16 4
v 11 16 4
v 8 16 -3
v 9 16 -3
v 10 16 -3
v 11 16 -3
v 8 16 -4
v 9 16 -4
v 10 16 -4
v 11 16 -4
v 9 17 5
v 10 17 5
v 9 17 4
v 10 17 4
v 9 17 -3
v 10 17 -3
v 9 17 -4
v 10 17 -4

# faces
f 3/3/1 2/3/1 1/3/1
f 4/3/1 2/3/1 3/3/1
f 7/3/1 6/3/1 5/3/1
f 8/3/1 7/3/1 5/3/1
f 9/3/1 7/3/1 8/3/1
f 12/3/1 11/3/1 10/3/1
f 13/3/1 11/3/1 12/3/1
f 17/3/1 15/3/1 14/3/1
f 18/3/1 15/3/1 17/3/1
f 20/3/1 17/3/1 16/3/1
f 20/3/1 19/3/1 18/3/1
f 20/3/1 18/3/1 17/3/1
f 21/3/1 19/3/1 20/3/1
f 22/3/1 19/3/1 21/3/1
f 23/3/1 19/3/1 22/3/1
f 24/3/1 22/3/1 21/3/1
f 25/3/1 22/3/1 24/3/1
f 26/3/1 22/3/1 25/3/1
f 27/3/1 22/3/1 26/3/1
f 28/3/1 22/3/1 27/3/1
f 29/3/1 22/3/1 28/3/1
f 30/3/1 26/3/1 25/3/1
f 31/3/1 26/3/1 30/3/1
f 32/3/1 28/3/1 27/3/1
f 33/3/1 28/3/1 32/3/1
f 38/4/1 35/4/1 34/4/1
f 39/4/1 35/4/1 38/4/1
f 40/4/1 37/4/1 36/4/1
f 41/4/1 37/4/1 40/4/1
f 42/2/1 39/2/1 38/2/1
f 43/2/1 39/2/1 42/2/1
f 44/2/1 41/2/1 40/2/1
f 45/2/1 41/2/1 44/2/1
f 50/4/1 47/4/1 46/4/1
f 51/4/1 47/4/1 50/4/1
f 52/4/1 49/4/1 48/4/1
f 53/4/1 49/4/1 52/4/1
f 54/2/1 51/2/1 50/2/1
f 55/2/1 51/2/1 54/2/1
f 56/2/1 53/2/1 52/2/1
f 57/2/1 53/2/1 56/2/1
f 60/3/1 59/3/1 58/3/1
f 61/3/1 59/3/1 60/3/1
f 66/3/1 63/3/1 62/3/1
f 67/3/1 63/3/1 66/3/1
f 68/3/1 65/3/1 64/3/1
f 69/3/1 65/3/1 68/3/1
f 74/3/1 71/3/1 70/3/1
f 75/3/1 71/3/1 74/3/1
f 76/3/1 73/3/1 72/3/1
f 77/3/1 73/3/1 76/3/1
f 78/3/2 79/3/2 80/3/2
f 80/3/2 79/3/2 81/3/2
f 82/3/2 83/3/2 84/3/2
f 84/3/2 83/3/2 85/3/2
f 86/3/2 87/3/2 88/3/2
f 88/3/2 87/3/2 89/3/2
f 90/4/2 91/4/2 94/4/2
f 94/4/2 91/4/2 95/4/2
f 92/4/2 93/4/2 96/4/2
f 96/4/2 93/4/2 97/4/2
f 94/2/2 95/2/2 98/2/2
f 98/2/2 95/2/2 99/2/2
f 96/2/2 97/2/2 100/2/2
f 100/2/2 97/2/2 101/2/2
f 102/4/2 103/4/2 106/4/2
f 106/4/2 103/4/2 107/4/2
f 104/4/2 105/4/2 108/4/2
f 108/4/2 105/4/2 109/4/2
f 106/2/2 107/2/2 111/2/2
f 111/2/2 107/2/2 112/2/2
f 108/2/2 109/2/2 113/2/2
f 113/2/2 109/2/2 114/2/2
f 113/3/2 114/3/2 117/3/2
f 114/3/2 115/3/2 117/3/2
f 112/3/2 113/3/2 117/3/2
f 111/3/2 112/3/2 117/3/2
f 110/3/2 111/3/2 117/3/2
f 117/3/2 115/3/2 118/3/2
f 116/3/2 117/3/2 120/3/2
f 118/3/2 119/3/2 120/3/2
f 117/3/2 118/3/2 120/3/2
f 120/3/2 119/3/2 121/3/2
f 116/3/2 120/3/2 122/3/2
f 122/3/2 120/3/2 123/3/2
f 121/3/2 119/3/2 124/3/2
f 124/3/2 119/3/2 125/3/2
f 123/3/2 120/3/2 126/3/2
f 126/3/2 120/3/2 127/3/2
f 121/3/2 124/3/2 128/3/2
f 128/3/2 124/3/2 129/3/2
f 127/3/2 120/3/2 130/3/2
f 130/3/2 120/3/2 131/3/2
f 121/3/2 128/3/2 132/3/2
f 132/3/2 128/3/2 133/3/2
f 134/3/2 135/3/2 138/3/2
f 138/3/2 135/3/2 139/3/2
f 136/3/2 137/3/2 140/3/2
f 140/3/2 137/3/2 141/3/2
f 142/3/2 143/3/2 146/3/2
f 146/3/2 143/3/2 147/3/2
f 144/3/2 145/3/2 148/3/2
f 148/3/2 145/3/2 149/3/2
f 150/3/2 151/3/2 154/3/2
f 154/3/2 151/3/2 155/3/2
f 152/3/2 153/3/2 156/3/2
f 156/3/2 153/3/2 157/3/2
f 154/1/2 155/1/2 158/1/2
f 150/3/2 154/3/2 158/3/2
f 155/3/2 156/3/2 159/3/2
f 158/1/2 155/1/2 159/1/2
f 156/1/2 157/1/2 160/1/2
f 159/3/2 156/3/2 160/3/2
f 157/3/2 153/3/2 161/3/2
f 160/1/2 157/1/2 161/1/2
f 159/3/2 160/3/2 162/3/2
f 158/3/2 159/3/2 162/3/2
f 160/3/2 161/3/2 162/3/2
f 150/3/2 158/3/2 162/3/2
f 161/3/2 153/3/2 163/3/2
f 162/3/2 161/3/2 163/3/2
f 164/3/2 165/3/2 166/3/2
f 166/3/2 165/3/2 167/3/2
f 167/3/2 165/3/2 168/3/2
f 168/3/2 165/3/2 169/3/2
f 164/3/2 166/3/2 170/3/2
f 166/1/2 167/1/2 170/1/2
f 167/3/2 168/3/2 171/3/2
f 170/1/2 167/1/2 171/1/2
f 168/1/2 169/1/2 172/1/2
f 171/3/2 168/3/2 172/3/2
f 169/3/2 165/3/2 173/3/2
f 172/1/2 169/1/2 173/1/2
f 171/3/2 172/3/2 174/3/2
f 170/3/2 171/3/2 174/3/2
f 172/3/2 173/3/2 174/3/2
f 164/3/2 170/3/2 174/3/2
f 173/3/2 165/3/2 175/3/2
f 174/3/2 173/3/2 175/3/2
f 178/3/3 177/3/3 176/3/3
f 179/3/3 177/3/3 178/3/3
f 184/3/3 181/3/3 180/3/3
f 185/3/3 181/3/3 184/3/3
f 186/3/3 183/3/3 182/3/3
f 187/3/3 183/3/3 186/3/3
f 190/3/3 189/3/3 188/3/3
f 191/3/3 189/3/3 190/3/3
f 195/4/3 193/4/3 192/4/3
f 196/2/3 194/2/3 193/2/3
f 196/4/3 193/4/3 195/4/3
f 197/2/3 194/2/3 196/2/3
f 203/4/3 199/4/3 198/4/3
f 204/2/3 200/2/3 199/2/3
f 204/4/3 199/4/3 203/4/3
f 205/2/3 200/2/3 204/2/3
f 207/3/3 202/3/3 201/3/3
f 208/3/3 207/3/3 206/3/3
f 208/3/3 202/3/3 207/3/3
f 210/3/3 209/3/3 208/3/3
f 212/3/3 210/3/3 208/3/3
f 212/3/3 211/3/3 210/3/3
f 213/3/3 211/3/3 212/3/3
f 214/3/3 208/3/3 206/3/3
f 214/3/3 212/3/3 208/3/3
f 215/3/3 212/3/3 214/3/3
f 216/3/3 214/3/3 206/3/3
f 217/3/3 214/3/3 216/3/3
f 220/3/3 219/3/3 218/3/3
f 221/3/3 219/3/3 220/3/3
f 224/3/3 223/3/3 222/3/3
f 225/3/3 223/3/3 224/3/3
f 228/3/3 227/3/3 226/3/3
f 229/3/3 227/3/3 228/3/3
f 230/3/3 227/3/3 229/3/3
f 231/3/3 227/3/3 230/3/3
f 234/3/3 233/3/3 232/3/3
f 235/3/3 233/3/3 234/3/3
f 238/3/3 237/3/3 236/3/3
f 239/3/3 237/3/3 238/3/3
f 243/4/3 241/4/3 240/4/3
f 244/2/3 242/2/3 241/2/3
f 244/4/3 241/4/3 243/4/3
f 245/2/3 242/2/3 244/2/3
f 249/4/3 247/4/3 246/4/3
f 250/2/3 248/2/3 247/2/3
f 250/4/3 247/4/3 249/4/3
f 251/2/3 248/2/3 250/2/3
f 254/3/3 253/3/3 252/3/3
f 256/3/3 254/3/3 252/3/3
f 256/3/3 255/3/3 254/3/3
f 257/3/3 255/3/3 256/3/3
f 258/3/3 256/3/3 252/3/3
f 259/3/3 256/3/3 258/3/3
f 260/3/4 261/3/4 262/3/4
f 260/3/4 262/3/4 264/3/4
f 262/3/4 263/3/4 264/3/4
f 264/3/4 263/3/4 265/3/4
f 260/3/4 264/3/4 266/3/4
f 266/3/4 264/3/4 267/3/4
f 268/4/4 269/4/4 271/4/4
f 269/2/4 270/2/4 272/2/4
f 271/4/4 269/4/4 272/4/4
f 272/2/4 270/2/4 273/2/4
f 274/4/4 275/4/4 277/4/4
f 275/2/4 276/2/4 278/2/4
f 277/4/4 275/4/4 278/4/4
f 278/2/4 276/2/4 279/2/4
f 280/3/4 281/3/4 282/3/4
f 282/3/4 281/3/4 283/3/4
f 284/3/4 285/3/4 286/3/4
f 286/3/4 285/3/4 287/3/4
f 287/3/4 288/3/4 289/3/4
f 289/3/4 288/3/4 290/3/4
f 291/3/4 292/3/4 293/3/4
f 293/3/4 292/3/4 294/3/4
f 295/3/4 296/3/4 298/3/4
f 298/3/4 296/3/4 299/3/4
f 297/3/4 298/3/4 299/3/4
f 299/3/4 300/3/4 301/3/4
f 299/3/4 301/3/4 303/3/4
f 301/3/4 302/3/4 303/3/4
f 303/3/4 302/3/4 304/3/4
f 297/3/4 299/3/4 305/3/4
f 299/3/4 303/3/4 305/3/4
f 305/3/4 303/3/4 306/3/4
f 297/3/4 305/3/4 307/3/4
f 307/3/4 305/3/4 308/3/4
f 311/4/4 312/4/4 314/4/4
f 312/2/4 313/2/4 315/2/4
f 314/4/4 312/4/4 315/4/4
f 315/2/4 313/2/4 316/2/4
f 317/4/4 318/4/4 320/4/4
f 318/2/4 319/2/4 321/2/4
f 320/4/4 318/4/4 321/4/4
f 321/2/4 319/2/4 322/2/4
f 309/3/4 310/3/4 323/3/4
f 323/3/4 310/3/4 324/3/4
f 325/3/4 326/3/4 329/3/4
f 329/3/4 326/3/4 330/3/4
f 327/3/4 328/3/4 331/3/4
f 331/3/4 328/3/4 332/3/4
f 333/3/4 334/3/4 335/3/4
f 335/3/4 334/3/4 336/3/4
f 341/4/5 338/4/5 337/4/5
f 342/4/5 338/4/5 341/4/5
f 343/4/5 340/4/5 339/4/5
f 344/4/5 340/4/5 343/4/5
f 349/4/5 346/4/5 345/4/5
f 350/4/5 346/4/5 349/4/5
f 351/4/5 348/4/5 347/4/5
f 352/4/5 348/4/5 351/4/5
f 355/3/5 354/3/5 353/3/5
f 356/3/5 354/3/5 355/3/5
f 357/3/5 354/3/5 356/3/5
f 358/3/5 354/3/5 357/3/5
f 359/3/5 355/3/5 353/3/5
f 360/3/5 357/3/5 356/3/5
f 361/3/5 357/3/5 360/3/5
f 363/3/5 359/3/5 353/3/5
f 363/3/5 362/3/5 361/3/5
f 363/3/5 361/3/5 360/3/5
f 363/3/5 360/3/5 359/3/5
f 364/3/5 362/3/5 363/3/5
f 365/3/5 362/3/5 364/3/5
f 366/3/5 362/3/5 365/3/5
f 367/3/5 363/3/5 353/3/5
f 368/3/5 365/3/5 364/3/5
f 369/3/5 365/3/5 368/3/5
f 371/3/5 367/3/5 353/3/5
f 371/3/5 370/3/5 369/3/5
f 371/3/5 369/3/5 368/3/5
f 371/3/5 368/3/5 367/3/5
f 372/3/5 370/3/5 371/3/5
f 375/3/5 374/3/5 373/3/5
f 376/3/5 374/3/5 375/3/5
f 379/3/5 378/3/5 377/3/5
f 380/3/5 378/3/5 379/3/5
f 383/3/5 382/3/5 381/3/5
f 385/3/5 383/3/5 381/3/5
f 385/3/5 384/3/5 383/3/5
f 386/3/5 384/3/5 385/3/5
f 387/3/5 385/3/5 381/3/5
f 388/3/5 385/3/5 387/3/5
f 393/3/5 390/3/5 389/3/5
f 394/3/5 392/3/5 391/3/5
f 395/3/5 393/3/5 389/3/5
f 395/3/5 394/3/5 393/3/5
f 396/3/5 392/3/5 394/3/5
f 396/3/5 394/3/5 395/3/5
f 399/3/5 398/3/5 397/3/5
f 401/3/5 399/3/5 397/3/5
f 401/3/5 400/3/5 399/3/5
f 402/3/5 400/3/5 401/3/5
f 403/3/6 404/3/6 405/3/6
f 405/3/6 404/3/6 406/3/6
f 407/3/6 408/3/6 409/3/6
f 409/3/6 408/3/6 410/3/6
f 411/3/6 412/3/6 413/3/6
f 413/3/6 412/3/6 414/3/6
f 415/3/6 416/3/6 417/3/6
f 417/3/6 416/3/6 418/3/6
f 419/3/6 420/3/6 421/3/6
f 419/3/6 421/3/6 424/3/6
f 422/3/6 423/3/6 424/3/6
f 421/3/6 422/3/6 424/3/6
f 424/3/6 423/3/6 425/3/6
f 426/3/6 427/3/6 428/3/6
f 428/3/6 427/3/6 429/3/6
f 430/3/6 431/3/6 432/3/6
f 432/3/6 431/3/6 433/3/6
f 434/3/6 435/3/6 436/3/6
f 436/3/6 435/3/6 437/3/6
f 437/3/6 435/3/6 438/3/6
f 430/3/6 432/3/6 439/3/6
f 437/3/6 438/3/6 440/3/6
f 438/3/6 439/3/6 440/3/6
f 439/3/6 432/3/6 441/3/6
f 440/3/6 439/3/6 441/3/6
f 441/3/6 432/3/6 442/3/6
f 441/3/6 442/3/6 444/3/6
f 442/3/6 443/3/6 444/3/6
f 444/3/6 443/3/6 445/3/6
f 446/3/6 447/3/6 450/3/6
f 448/3/6 449/3/6 451/3/6
f 446/3/6 450/3/6 452/3/6
f 450/3/6 451/3/6 452/3/6
f 451/3/6 449/3/6 453/3/6
f 452/3/6 451/3/6 453/3/6
f 446/3/6 452/3/6 454/3/6
f 454/3/6 452/3/6 455/3/6
f 453/3/6 449/3/6 456/3/6
f 456/3/6 449/3/6 457/3/6
f 458/3/6 459/3/6 462/3/6
f 462/3/6 459/3/6 463/3/6
f 460/3/6 461/3/6 464/3/6
f 464/3/6 461/3/6 465/3/6
f 466/3/6 467/3/6 470/3/6
f 470/3/6 467/3/6 471/3/6
f 468/3/6 469/3/6 472/3/6
f 472/3/6 469/3/6 473/3/6
f 474/3/6 475/3/6 476/3/6
f 476/3/6 475/3/6 477/3/6
f 478/3/6 479/3/6 480/3/6
f 480/3/6 479/3/6 481/3/6
