# MagicaVoxel @ Ephtracy

# material
mtllib BlacksmithHouse.mtl
usemtl palette

# normals
vn -1 0 0
vn 1 0 0
vn 0 0 1
vn 0 0 -1
vn 0 -1 0
vn 0 1 0

# texcoords
vt 0.216797 0.5
vt 0.283203 0.5
vt 0.306641 0.5
vt 0.845703 0.5
vt 0.884766 0.5
vt 0.986328 0.5

# verts
v -43 0 20
v -43 0 -20
v -43 1 20
v -43 1 -20
v -43 26 20
v -43 26 -20
v -43 27 20
v -43 27 -20
v -40 27 20
v -40 27 -20
v -40 28 20
v -40 28 -20
v -37 28 20
v -37 28 -20
v -37 29 20
v -37 29 -20
v -33 29 20
v -33 29 -20
v -33 30 20
v -33 30 -20
v -30 30 20
v -30 30 -20
v -30 31 20
v -30 31 -20
v -27 31 20
v -27 31 -20
v -27 32 20
v -27 32 -20
v -24 32 20
v -24 32 -20
v -24 33 20
v -24 33 -20
v -20 33 20
v -20 33 -20
v -20 34 20
v -20 34 -20
v -17 34 20
v -17 34 -20
v -17 35 20
v -17 35 -20
v -14 35 20
v -14 35 -20
v -14 36 20
v -14 36 -20
v -11 36 20
v -11 36 -20
v -11 37 20
v -11 37 -20
v -9 37 20
v -9 37 -20
v -9 38 20
v -9 38 -20
v -2 7 21
v -2 7 20
v -2 8 21
v -2 8 20
v 37 1 19
v 37 1 -19
v 37 26 19
v 37 26 -19
v -42 1 19
v -42 1 -19
v -42 26 19
v -42 26 -19
v -1 7 21
v -1 7 20
v -1 8 21
v -1 8 20
v 4 37 20
v 4 37 -20
v 4 38 20
v 4 38 -20
v 6 36 20
v 6 36 -20
v 6 37 20
v 6 37 -20
v 9 35 20
v 9 35 -20
v 9 36 20
v 9 36 -20
v 12 34 20
v 12 34 -20
v 12 35 20
v 12 35 -20
v 16 33 20
v 16 33 -20
v 16 34 20
v 16 34 -20
v 20 32 20
v 20 32 -20
v 20 33 20
v 20 33 -20
v 23 31 20
v 23 31 -20
v 23 32 20
v 23 32 -20
v 26 30 20
v 26 30 -20
v 26 31 20
v 26 31 -20
v 30 29 20
v 30 29 -20
v 30 30 20
v 30 30 -20
v 33 28 20
v 33 28 -20
v 33 29 20
v 33 29 -20
v 36 27 20
v 36 27 -20
v 36 28 20
v 36 28 -20
v 38 0 20
v 38 0 -20
v 38 1 20
v 38 1 -20
v 38 26 20
v 38 26 -20
v 38 27 20
v 38 27 -20
v -2 7 21
v -2 8 21
v -1 7 21
v -1 8 21
v -43 0 20
v -43 1 20
v -43 26 20
v -43 27 20
v -40 27 20
v -40 28 20
v -37 28 20
v -37 29 20
v -34 6 20
v -34 10 20
v -34 11 20
v -34 15 20
v -33 29 20
v -33 30 20
v -30 6 20
v -30 10 20
v -30 11 20
v -30 15 20
v -30 30 20
v -30 31 20
v -29 6 20
v -29 10 20
v -29 11 20
v -29 15 20
v -27 31 20
v -27 32 20
v -24 6 20
v -24 10 20
v -24 11 20
v -24 15 20
v -24 32 20
v -24 33 20
v -20 33 20
v -20 34 20
v -17 34 20
v -17 35 20
v -14 35 20
v -14 36 20
v -11 36 20
v -11 37 20
v -10 1 20
v -10 17 20
v -9 37 20
v -9 38 20
v -2 7 20
v -2 8 20
v -1 7 20
v -1 8 20
v 0 1 20
v 0 17 20
v 4 37 20
v 4 38 20
v 6 36 20
v 6 37 20
v 9 35 20
v 9 36 20
v 12 34 20
v 12 35 20
v 16 5 20
v 16 9 20
v 16 10 20
v 16 15 20
v 16 33 20
v 16 34 20
v 20 32 20
v 20 33 20
v 21 5 20
v 21 9 20
v 21 10 20
v 21 15 20
v 22 5 20
v 22 9 20
v 22 10 20
v 22 15 20
v 23 31 20
v 23 32 20
v 26 30 20
v 26 31 20
v 27 5 20
v 27 9 20
v 27 10 20
v 27 15 20
v 30 29 20
v 30 30 20
v 33 28 20
v 33 29 20
v 36 27 20
v 36 28 20
v 38 0 20
v 38 1 20
v 38 26 20
v 38 27 20
v -42 1 -19
v -42 26 -19
v -29 7 -19
v -29 10 -19
v -29 11 -19
v -29 15 -19
v -25 7 -19
v -25 10 -19
v -25 11 -19
v -25 15 -19
v -24 7 -19
v -24 10 -19
v -24 11 -19
v -24 15 -19
v -19 7 -19
v -19 10 -19
v -19 11 -19
v -19 15 -19
v 15 7 -19
v 15 10 -19
v 15 11 -19
v 15 15 -19
v 20 7 -19
v 20 10 -19
v 20 11 -19
v 20 15 -19
v 21 7 -19
v 21 10 -19
v 21 11 -19
v 21 15 -19
v 25 7 -19
v 25 10 -19
v 25 11 -19
v 25 15 -19
v 37 1 -19
v 37 26 -19
v -42 1 19
v -42 26 19
v -34 6 19
v -34 10 19
v -34 11 19
v -34 15 19
v -30 6 19
v -30 10 19
v -30 11 19
v -30 15 19
v -29 6 19
v -29 10 19
v -29 11 19
v -29 15 19
v -24 6 19
v -24 10 19
v -24 11 19
v -24 15 19
v -10 1 19
v -10 17 19
v 0 1 19
v 0 17 19
v 16 5 19
v 16 9 19
v 16 10 19
v 16 15 19
v 21 5 19
v 21 9 19
v 21 10 19
v 21 15 19
v 22 5 19
v 22 9 19
v 22 10 19
v 22 15 19
v 27 5 19
v 27 9 19
v 27 10 19
v 27 15 19
v 37 1 19
v 37 26 19
v -43 0 -20
v -43 1 -20
v -43 26 -20
v -43 27 -20
v -40 27 -20
v -40 28 -20
v -37 28 -20
v -37 29 -20
v -33 29 -20
v -33 30 -20
v -30 30 -20
v -30 31 -20
v -29 7 -20
v -29 10 -20
v -29 11 -20
v -29 15 -20
v -27 31 -20
v -27 32 -20
v -25 7 -20
v -25 10 -20
v -25 11 -20
v -25 15 -20
v -24 7 -20
v -24 10 -20
v -24 11 -20
v -24 15 -20
v -24 32 -20
v -24 33 -20
v -20 33 -20
v -20 34 -20
v -19 7 -20
v -19 10 -20
v -19 11 -20
v -19 15 -20
v -17 34 -20
v -17 35 -20
v -14 35 -20
v -14 36 -20
v -11 36 -20
v -11 37 -20
v -9 37 -20
v -9 38 -20
v 4 37 -20
v 4 38 -20
v 6 36 -20
v 6 37 -20
v 9 35 -20
v 9 36 -20
v 12 34 -20
v 12 35 -20
v 15 7 -20
v 15 10 -20
v 15 11 -20
v 15 15 -20
v 16 33 -20
v 16 34 -20
v 20 7 -20
v 20 10 -20
v 20 11 -20
v 20 15 -20
v 20 32 -20
v 20 33 -20
v 21 7 -20
v 21 10 -20
v 21 11 -20
v 21 15 -20
v 23 31 -20
v 23 32 -20
v 25 7 -20
v 25 10 -20
v 25 11 -20
v 25 15 -20
v 26 30 -20
v 26 31 -20
v 30 29 -20
v 30 30 -20
v 33 28 -20
v 33 29 -20
v 36 27 -20
v 36 28 -20
v 38 0 -20
v 38 1 -20
v 38 26 -20
v 38 27 -20
v -43 0 20
v 38 0 20
v -43 0 -20
v 38 0 -20
v -2 7 21
v -1 7 21
v -2 7 20
v -1 7 20
v -42 26 19
v 37 26 19
v -42 26 -19
v 37 26 -19
v -42 1 19
v -10 1 19
v 0 1 19
v 37 1 19
v -42 1 -19
v 37 1 -19
v -2 8 21
v -1 8 21
v -2 8 20
v -1 8 20
v -43 27 20
v -40 27 20
v 36 27 20
v 38 27 20
v -43 27 -20
v -40 27 -20
v 36 27 -20
v 38 27 -20
v -40 28 20
v -37 28 20
v 33 28 20
v 36 28 20
v -40 28 -20
v -37 28 -20
v 33 28 -20
v 36 28 -20
v -37 29 20
v -33 29 20
v 30 29 20
v 33 29 20
v -37 29 -20
v -33 29 -20
v 30 29 -20
v 33 29 -20
v -33 30 20
v -30 30 20
v 26 30 20
v 30 30 20
v -33 30 -20
v -30 30 -20
v 26 30 -20
v 30 30 -20
v -30 31 20
v -27 31 20
v 23 31 20
v 26 31 20
v -30 31 -20
v -27 31 -20
v 23 31 -20
v 26 31 -20
v -27 32 20
v -24 32 20
v 20 32 20
v 23 32 20
v -27 32 -20
v -24 32 -20
v 20 32 -20
v 23 32 -20
v -24 33 20
v -20 33 20
v 16 33 20
v 20 33 20
v -24 33 -20
v -20 33 -20
v 16 33 -20
v 20 33 -20
v -20 34 20
v -17 34 20
v 12 34 20
v 16 34 20
v -20 34 -20
v -17 34 -20
v 12 34 -20
v 16 34 -20
v -17 35 20
v -14 35 20
v 9 35 20
v 12 35 20
v -17 35 -20
v -14 35 -20
v 9 35 -20
v 12 35 -20
v -14 36 20
v -11 36 20
v 6 36 20
v 9 36 20
v -14 36 -20
v -11 36 -20
v 6 36 -20
v 9 36 -20
v -11 37 20
v -9 37 20
v 4 37 20
v 6 37 20
v -11 37 -20
v -9 37 -20
v 4 37 -20
v 6 37 -20
v -9 38 20
v 4 38 20
v -9 38 -20
v 4 38 -20

# faces
f 3/3/1 2/3/1 1/3/1
f 4/3/1 2/3/1 3/3/1
f 5/6/1 4/6/1 3/6/1
f 6/6/1 4/6/1 5/6/1
f 7/5/1 6/5/1 5/5/1
f 8/5/1 6/5/1 7/5/1
f 11/5/1 10/5/1 9/5/1
f 12/5/1 10/5/1 11/5/1
f 15/5/1 14/5/1 13/5/1
f 16/5/1 14/5/1 15/5/1
f 19/5/1 18/5/1 17/5/1
f 20/5/1 18/5/1 19/5/1
f 23/5/1 22/5/1 21/5/1
f 24/5/1 22/5/1 23/5/1
f 27/5/1 26/5/1 25/5/1
f 28/5/1 26/5/1 27/5/1
f 31/5/1 30/5/1 29/5/1
f 32/5/1 30/5/1 31/5/1
f 35/5/1 34/5/1 33/5/1
f 36/5/1 34/5/1 35/5/1
f 39/5/1 38/5/1 37/5/1
f 40/5/1 38/5/1 39/5/1
f 43/5/1 42/5/1 41/5/1
f 44/5/1 42/5/1 43/5/1
f 47/5/1 46/5/1 45/5/1
f 48/5/1 46/5/1 47/5/1
f 51/5/1 50/5/1 49/5/1
f 52/5/1 50/5/1 51/5/1
f 55/4/1 54/4/1 53/4/1
f 56/4/1 54/4/1 55/4/1
f 59/6/1 58/6/1 57/6/1
f 60/6/1 58/6/1 59/6/1
f 61/6/2 62/6/2 63/6/2
f 63/6/2 62/6/2 64/6/2
f 65/4/2 66/4/2 67/4/2
f 67/4/2 66/4/2 68/4/2
f 69/5/2 70/5/2 71/5/2
f 71/5/2 70/5/2 72/5/2
f 73/5/2 74/5/2 75/5/2
f 75/5/2 74/5/2 76/5/2
f 77/5/2 78/5/2 79/5/2
f 79/5/2 78/5/2 80/5/2
f 81/5/2 82/5/2 83/5/2
f 83/5/2 82/5/2 84/5/2
f 85/5/2 86/5/2 87/5/2
f 87/5/2 86/5/2 88/5/2
f 89/5/2 90/5/2 91/5/2
f 91/5/2 90/5/2 92/5/2
f 93/5/2 94/5/2 95/5/2
f 95/5/2 94/5/2 96/5/2
f 97/5/2 98/5/2 99/5/2
f 99/5/2 98/5/2 100/5/2
f 101/5/2 102/5/2 103/5/2
f 103/5/2 102/5/2 104/5/2
f 105/5/2 106/5/2 107/5/2
f 107/5/2 106/5/2 108/5/2
f 109/5/2 110/5/2 111/5/2
f 111/5/2 110/5/2 112/5/2
f 113/3/2 114/3/2 115/3/2
f 115/3/2 114/3/2 116/3/2
f 115/6/2 116/6/2 117/6/2
f 117/6/2 116/6/2 118/6/2
f 117/5/2 118/5/2 119/5/2
f 119/5/2 118/5/2 120/5/2
f 123/4/3 122/4/3 121/4/3
f 124/4/3 122/4/3 123/4/3
f 129/5/3 128/5/3 127/5/3
f 131/5/3 130/5/3 129/5/3
f 133/6/3 127/6/3 126/6/3
f 134/6/3 127/6/3 133/6/3
f 135/6/3 127/6/3 134/6/3
f 136/6/3 127/6/3 135/6/3
f 137/5/3 132/5/3 131/5/3
f 139/6/3 133/6/3 126/6/3
f 139/1/3 134/1/3 133/1/3
f 140/2/3 135/2/3 134/2/3
f 140/1/3 134/1/3 139/1/3
f 141/1/3 136/1/3 135/1/3
f 141/2/3 135/2/3 140/2/3
f 142/6/3 127/6/3 136/6/3
f 142/1/3 136/1/3 141/1/3
f 143/5/3 138/5/3 137/5/3
f 145/2/3 141/2/3 140/2/3
f 145/6/3 139/6/3 126/6/3
f 145/2/3 140/2/3 139/2/3
f 145/2/3 142/2/3 141/2/3
f 146/2/3 142/2/3 145/2/3
f 147/2/3 142/2/3 146/2/3
f 148/6/3 127/6/3 142/6/3
f 148/2/3 142/2/3 147/2/3
f 149/5/3 144/5/3 143/5/3
f 151/6/3 145/6/3 126/6/3
f 151/1/3 146/1/3 145/1/3
f 152/2/3 147/2/3 146/2/3
f 152/1/3 146/1/3 151/1/3
f 153/1/3 148/1/3 147/1/3
f 153/2/3 147/2/3 152/2/3
f 154/6/3 127/6/3 148/6/3
f 154/1/3 148/1/3 153/1/3
f 155/5/3 150/5/3 149/5/3
f 157/5/3 156/5/3 155/5/3
f 159/5/3 158/5/3 157/5/3
f 161/5/3 160/5/3 159/5/3
f 163/5/3 162/5/3 161/5/3
f 165/3/3 126/3/3 125/3/3
f 165/6/3 153/6/3 152/6/3
f 165/6/3 151/6/3 126/6/3
f 165/6/3 152/6/3 151/6/3
f 165/6/3 154/6/3 153/6/3
f 166/6/3 127/6/3 154/6/3
f 166/6/3 154/6/3 165/6/3
f 167/5/3 164/5/3 163/5/3
f 169/2/3 166/2/3 165/2/3
f 170/2/3 166/2/3 169/2/3
f 171/2/3 169/2/3 165/2/3
f 172/2/3 166/2/3 170/2/3
f 173/3/3 165/3/3 125/3/3
f 173/2/3 172/2/3 171/2/3
f 173/2/3 171/2/3 165/2/3
f 174/6/3 127/6/3 166/6/3
f 174/2/3 172/2/3 173/2/3
f 174/2/3 166/2/3 172/2/3
f 175/5/3 168/5/3 167/5/3
f 175/5/3 167/5/3 163/5/3
f 176/5/3 168/5/3 175/5/3
f 177/5/3 163/5/3 161/5/3
f 177/5/3 175/5/3 163/5/3
f 178/5/3 175/5/3 177/5/3
f 179/5/3 161/5/3 159/5/3
f 179/5/3 177/5/3 161/5/3
f 180/5/3 177/5/3 179/5/3
f 181/5/3 159/5/3 157/5/3
f 181/5/3 179/5/3 159/5/3
f 182/5/3 179/5/3 181/5/3
f 183/6/3 174/6/3 173/6/3
f 184/6/3 174/6/3 183/6/3
f 185/6/3 174/6/3 184/6/3
f 186/6/3 174/6/3 185/6/3
f 187/5/3 157/5/3 155/5/3
f 187/5/3 181/5/3 157/5/3
f 188/5/3 181/5/3 187/5/3
f 189/5/3 155/5/3 149/5/3
f 189/5/3 187/5/3 155/5/3
f 190/5/3 187/5/3 189/5/3
f 191/6/3 183/6/3 173/6/3
f 191/1/3 184/1/3 183/1/3
f 192/2/3 185/2/3 184/2/3
f 192/1/3 184/1/3 191/1/3
f 193/1/3 186/1/3 185/1/3
f 193/2/3 185/2/3 192/2/3
f 194/6/3 174/6/3 186/6/3
f 194/1/3 186/1/3 193/1/3
f 195/2/3 193/2/3 192/2/3
f 195/2/3 192/2/3 191/2/3
f 195/2/3 194/2/3 193/2/3
f 195/6/3 191/6/3 173/6/3
f 196/2/3 194/2/3 195/2/3
f 197/2/3 194/2/3 196/2/3
f 198/6/3 174/6/3 194/6/3
f 198/2/3 194/2/3 197/2/3
f 199/5/3 149/5/3 143/5/3
f 199/5/3 189/5/3 149/5/3
f 200/5/3 189/5/3 199/5/3
f 201/5/3 143/5/3 137/5/3
f 201/5/3 199/5/3 143/5/3
f 202/5/3 199/5/3 201/5/3
f 203/6/3 195/6/3 173/6/3
f 203/1/3 196/1/3 195/1/3
f 204/2/3 197/2/3 196/2/3
f 204/1/3 196/1/3 203/1/3
f 205/1/3 198/1/3 197/1/3
f 205/2/3 197/2/3 204/2/3
f 206/6/3 174/6/3 198/6/3
f 206/1/3 198/1/3 205/1/3
f 207/5/3 137/5/3 131/5/3
f 207/5/3 201/5/3 137/5/3
f 208/5/3 201/5/3 207/5/3
f 209/5/3 131/5/3 129/5/3
f 209/5/3 207/5/3 131/5/3
f 210/5/3 207/5/3 209/5/3
f 211/5/3 129/5/3 127/5/3
f 211/5/3 209/5/3 129/5/3
f 212/5/3 209/5/3 211/5/3
f 213/3/3 173/3/3 125/3/3
f 214/6/3 205/6/3 204/6/3
f 214/3/3 173/3/3 213/3/3
f 214/6/3 203/6/3 173/6/3
f 214/6/3 204/6/3 203/6/3
f 214/6/3 206/6/3 205/6/3
f 215/6/3 174/6/3 206/6/3
f 215/6/3 206/6/3 214/6/3
f 215/5/3 211/5/3 127/5/3
f 215/6/3 127/6/3 174/6/3
f 216/5/3 211/5/3 215/5/3
f 219/6/3 218/6/3 217/6/3
f 220/6/3 218/6/3 219/6/3
f 221/6/3 218/6/3 220/6/3
f 222/6/3 218/6/3 221/6/3
f 223/6/3 219/6/3 217/6/3
f 223/1/3 220/1/3 219/1/3
f 224/2/3 221/2/3 220/2/3
f 224/1/3 220/1/3 223/1/3
f 225/1/3 222/1/3 221/1/3
f 225/2/3 221/2/3 224/2/3
f 226/6/3 218/6/3 222/6/3
f 226/1/3 222/1/3 225/1/3
f 227/2/3 225/2/3 224/2/3
f 227/2/3 224/2/3 223/2/3
f 227/2/3 226/2/3 225/2/3
f 227/6/3 223/6/3 217/6/3
f 228/2/3 226/2/3 227/2/3
f 229/2/3 226/2/3 228/2/3
f 230/6/3 218/6/3 226/6/3
f 230/2/3 226/2/3 229/2/3
f 231/6/3 227/6/3 217/6/3
f 231/1/3 228/1/3 227/1/3
f 232/2/3 229/2/3 228/2/3
f 232/1/3 228/1/3 231/1/3
f 233/1/3 230/1/3 229/1/3
f 233/2/3 229/2/3 232/2/3
f 234/6/3 218/6/3 230/6/3
f 234/1/3 230/1/3 233/1/3
f 235/6/3 231/6/3 217/6/3
f 235/6/3 233/6/3 232/6/3
f 235/6/3 234/6/3 233/6/3
f 235/6/3 232/6/3 231/6/3
f 236/6/3 234/6/3 235/6/3
f 237/6/3 234/6/3 236/6/3
f 238/6/3 218/6/3 234/6/3
f 238/6/3 234/6/3 237/6/3
f 239/6/3 235/6/3 217/6/3
f 239/1/3 236/1/3 235/1/3
f 240/2/3 237/2/3 236/2/3
f 240/1/3 236/1/3 239/1/3
f 241/1/3 238/1/3 237/1/3
f 241/2/3 237/2/3 240/2/3
f 242/6/3 218/6/3 238/6/3
f 242/1/3 238/1/3 241/1/3
f 243/6/3 239/6/3 217/6/3
f 243/2/3 241/2/3 240/2/3
f 243/2/3 242/2/3 241/2/3
f 243/2/3 240/2/3 239/2/3
f 244/2/3 242/2/3 243/2/3
f 245/2/3 242/2/3 244/2/3
f 246/6/3 218/6/3 242/6/3
f 246/2/3 242/2/3 245/2/3
f 247/6/3 243/6/3 217/6/3
f 247/1/3 244/1/3 243/1/3
f 248/2/3 245/2/3 244/2/3
f 248/1/3 244/1/3 247/1/3
f 249/1/3 246/1/3 245/1/3
f 249/2/3 245/2/3 248/2/3
f 250/6/3 218/6/3 246/6/3
f 250/1/3 246/1/3 249/1/3
f 251/6/3 247/6/3 217/6/3
f 251/6/3 249/6/3 248/6/3
f 251/6/3 250/6/3 249/6/3
f 251/6/3 248/6/3 247/6/3
f 252/6/3 218/6/3 250/6/3
f 252/6/3 250/6/3 251/6/3
f 253/6/4 254/6/4 255/6/4
f 255/6/4 254/6/4 256/6/4
f 256/6/4 254/6/4 257/6/4
f 257/6/4 254/6/4 258/6/4
f 253/6/4 255/6/4 259/6/4
f 255/1/4 256/1/4 259/1/4
f 256/2/4 257/2/4 260/2/4
f 259/1/4 256/1/4 260/1/4
f 257/1/4 258/1/4 261/1/4
f 260/2/4 257/2/4 261/2/4
f 258/6/4 254/6/4 262/6/4
f 261/1/4 258/1/4 262/1/4
f 260/2/4 261/2/4 263/2/4
f 259/2/4 260/2/4 263/2/4
f 261/2/4 262/2/4 263/2/4
f 253/6/4 259/6/4 263/6/4
f 263/2/4 262/2/4 264/2/4
f 264/2/4 262/2/4 265/2/4
f 262/6/4 254/6/4 266/6/4
f 265/2/4 262/2/4 266/2/4
f 253/6/4 263/6/4 267/6/4
f 263/1/4 264/1/4 267/1/4
f 264/2/4 265/2/4 268/2/4
f 267/1/4 264/1/4 268/1/4
f 265/1/4 266/1/4 269/1/4
f 268/2/4 265/2/4 269/2/4
f 266/6/4 254/6/4 270/6/4
f 269/1/4 266/1/4 270/1/4
f 253/6/4 267/6/4 271/6/4
f 268/6/4 269/6/4 271/6/4
f 269/6/4 270/6/4 271/6/4
f 267/6/4 268/6/4 271/6/4
f 270/6/4 254/6/4 272/6/4
f 271/6/4 270/6/4 272/6/4
f 271/2/4 272/2/4 273/2/4
f 272/6/4 254/6/4 274/6/4
f 273/2/4 272/2/4 274/2/4
f 273/6/4 274/6/4 275/6/4
f 275/6/4 274/6/4 276/6/4
f 276/6/4 274/6/4 277/6/4
f 277/6/4 274/6/4 278/6/4
f 273/6/4 275/6/4 279/6/4
f 275/1/4 276/1/4 279/1/4
f 276/2/4 277/2/4 280/2/4
f 279/1/4 276/1/4 280/1/4
f 277/1/4 278/1/4 281/1/4
f 280/2/4 277/2/4 281/2/4
f 278/6/4 274/6/4 282/6/4
f 281/1/4 278/1/4 282/1/4
f 280/2/4 281/2/4 283/2/4
f 279/2/4 280/2/4 283/2/4
f 281/2/4 282/2/4 283/2/4
f 273/6/4 279/6/4 283/6/4
f 283/2/4 282/2/4 284/2/4
f 284/2/4 282/2/4 285/2/4
f 282/6/4 274/6/4 286/6/4
f 285/2/4 282/2/4 286/2/4
f 273/6/4 283/6/4 287/6/4
f 283/1/4 284/1/4 287/1/4
f 284/2/4 285/2/4 288/2/4
f 287/1/4 284/1/4 288/1/4
f 285/1/4 286/1/4 289/1/4
f 288/2/4 285/2/4 289/2/4
f 286/6/4 274/6/4 290/6/4
f 289/1/4 286/1/4 290/1/4
f 273/6/4 287/6/4 291/6/4
f 288/6/4 289/6/4 291/6/4
f 289/6/4 290/6/4 291/6/4
f 287/6/4 288/6/4 291/6/4
f 274/6/4 254/6/4 292/6/4
f 291/6/4 290/6/4 292/6/4
f 290/6/4 274/6/4 292/6/4
f 295/5/4 296/5/4 297/5/4
f 297/5/4 298/5/4 299/5/4
f 299/5/4 300/5/4 301/5/4
f 301/5/4 302/5/4 303/5/4
f 294/6/4 295/6/4 305/6/4
f 305/6/4 295/6/4 306/6/4
f 306/6/4 295/6/4 307/6/4
f 307/6/4 295/6/4 308/6/4
f 303/5/4 304/5/4 309/5/4
f 294/6/4 305/6/4 311/6/4
f 305/1/4 306/1/4 311/1/4
f 306/2/4 307/2/4 312/2/4
f 311/1/4 306/1/4 312/1/4
f 307/1/4 308/1/4 313/1/4
f 312/2/4 307/2/4 313/2/4
f 308/6/4 295/6/4 314/6/4
f 313/1/4 308/1/4 314/1/4
f 312/2/4 313/2/4 315/2/4
f 294/6/4 311/6/4 315/6/4
f 313/2/4 314/2/4 315/2/4
f 311/2/4 312/2/4 315/2/4
f 315/2/4 314/2/4 316/2/4
f 316/2/4 314/2/4 317/2/4
f 314/6/4 295/6/4 318/6/4
f 317/2/4 314/2/4 318/2/4
f 309/5/4 310/5/4 319/5/4
f 319/5/4 320/5/4 321/5/4
f 294/6/4 315/6/4 323/6/4
f 315/1/4 316/1/4 323/1/4
f 316/2/4 317/2/4 324/2/4
f 323/1/4 316/1/4 324/1/4
f 317/1/4 318/1/4 325/1/4
f 324/2/4 317/2/4 325/2/4
f 318/6/4 295/6/4 326/6/4
f 325/1/4 318/1/4 326/1/4
f 321/5/4 322/5/4 327/5/4
f 327/5/4 328/5/4 329/5/4
f 329/5/4 330/5/4 331/5/4
f 331/5/4 332/5/4 333/5/4
f 331/5/4 333/5/4 335/5/4
f 333/5/4 334/5/4 335/5/4
f 335/5/4 334/5/4 336/5/4
f 329/5/4 331/5/4 337/5/4
f 331/5/4 335/5/4 337/5/4
f 337/5/4 335/5/4 338/5/4
f 327/5/4 329/5/4 339/5/4
f 329/5/4 337/5/4 339/5/4
f 339/5/4 337/5/4 340/5/4
f 321/5/4 327/5/4 341/5/4
f 327/5/4 339/5/4 341/5/4
f 341/5/4 339/5/4 342/5/4
f 294/6/4 323/6/4 343/6/4
f 324/6/4 325/6/4 343/6/4
f 323/6/4 324/6/4 343/6/4
f 325/6/4 326/6/4 343/6/4
f 343/6/4 326/6/4 344/6/4
f 344/6/4 326/6/4 345/6/4
f 326/6/4 295/6/4 346/6/4
f 345/6/4 326/6/4 346/6/4
f 321/5/4 341/5/4 347/5/4
f 319/5/4 321/5/4 347/5/4
f 347/5/4 341/5/4 348/5/4
f 294/6/4 343/6/4 349/6/4
f 343/1/4 344/1/4 349/1/4
f 344/2/4 345/2/4 350/2/4
f 349/1/4 344/1/4 350/1/4
f 345/1/4 346/1/4 351/1/4
f 350/2/4 345/2/4 351/2/4
f 346/6/4 295/6/4 352/6/4
f 351/1/4 346/1/4 352/1/4
f 309/5/4 319/5/4 353/5/4
f 319/5/4 347/5/4 353/5/4
f 353/5/4 347/5/4 354/5/4
f 350/2/4 351/2/4 355/2/4
f 294/6/4 349/6/4 355/6/4
f 349/2/4 350/2/4 355/2/4
f 351/2/4 352/2/4 355/2/4
f 355/2/4 352/2/4 356/2/4
f 356/2/4 352/2/4 357/2/4
f 352/6/4 295/6/4 358/6/4
f 357/2/4 352/2/4 358/2/4
f 303/5/4 309/5/4 359/5/4
f 309/5/4 353/5/4 359/5/4
f 359/5/4 353/5/4 360/5/4
f 294/6/4 355/6/4 361/6/4
f 355/1/4 356/1/4 361/1/4
f 356/2/4 357/2/4 362/2/4
f 361/1/4 356/1/4 362/1/4
f 357/1/4 358/1/4 363/1/4
f 362/2/4 357/2/4 363/2/4
f 358/6/4 295/6/4 364/6/4
f 363/1/4 358/1/4 364/1/4
f 301/5/4 303/5/4 365/5/4
f 303/5/4 359/5/4 365/5/4
f 365/5/4 359/5/4 366/5/4
f 299/5/4 301/5/4 367/5/4
f 301/5/4 365/5/4 367/5/4
f 367/5/4 365/5/4 368/5/4
f 297/5/4 299/5/4 369/5/4
f 299/5/4 367/5/4 369/5/4
f 369/5/4 367/5/4 370/5/4
f 295/5/4 297/5/4 371/5/4
f 297/5/4 369/5/4 371/5/4
f 371/5/4 369/5/4 372/5/4
f 293/3/4 294/3/4 373/3/4
f 362/6/4 363/6/4 374/6/4
f 373/3/4 294/3/4 374/3/4
f 361/6/4 362/6/4 374/6/4
f 294/6/4 361/6/4 374/6/4
f 363/6/4 364/6/4 374/6/4
f 364/6/4 295/6/4 375/6/4
f 374/6/4 364/6/4 375/6/4
f 295/5/4 371/5/4 375/5/4
f 375/5/4 371/5/4 376/5/4
f 379/3/5 378/3/5 377/3/5
f 380/3/5 378/3/5 379/3/5
f 383/4/5 382/4/5 381/4/5
f 384/4/5 382/4/5 383/4/5
f 387/5/5 386/5/5 385/5/5
f 388/5/5 386/5/5 387/5/5
f 389/3/6 390/3/6 393/3/6
f 391/3/6 392/3/6 393/3/6
f 390/3/6 391/3/6 393/3/6
f 393/3/6 392/3/6 394/3/6
f 395/4/6 396/4/6 397/4/6
f 397/4/6 396/4/6 398/4/6
f 399/5/6 400/5/6 403/5/6
f 403/5/6 400/5/6 404/5/6
f 401/5/6 402/5/6 405/5/6
f 405/5/6 402/5/6 406/5/6
f 407/5/6 408/5/6 411/5/6
f 411/5/6 408/5/6 412/5/6
f 409/5/6 410/5/6 413/5/6
f 413/5/6 410/5/6 414/5/6
f 415/5/6 416/5/6 419/5/6
f 419/5/6 416/5/6 420/5/6
f 417/5/6 418/5/6 421/5/6
f 421/5/6 418/5/6 422/5/6
f 423/5/6 424/5/6 427/5/6
f 427/5/6 424/5/6 428/5/6
f 425/5/6 426/5/6 429/5/6
f 429/5/6 426/5/6 430/5/6
f 431/5/6 432/5/6 435/5/6
f 435/5/6 432/5/6 436/5/6
f 433/5/6 434/5/6 437/5/6
f 437/5/6 434/5/6 438/5/6
f 439/5/6 440/5/6 443/5/6
f 443/5/6 440/5/6 444/5/6
f 441/5/6 442/5/6 445/5/6
f 445/5/6 442/5/6 446/5/6
f 447/5/6 448/5/6 451/5/6
f 451/5/6 448/5/6 452/5/6
f 449/5/6 450/5/6 453/5/6
f 453/5/6 450/5/6 454/5/6
f 455/5/6 456/5/6 459/5/6
f 459/5/6 456/5/6 460/5/6
f 457/5/6 458/5/6 461/5/6
f 461/5/6 458/5/6 462/5/6
f 463/5/6 464/5/6 467/5/6
f 467/5/6 464/5/6 468/5/6
f 465/5/6 466/5/6 469/5/6
f 469/5/6 466/5/6 470/5/6
f 471/5/6 472/5/6 475/5/6
f 475/5/6 472/5/6 476/5/6
f 473/5/6 474/5/6 477/5/6
f 477/5/6 474/5/6 478/5/6
f 479/5/6 480/5/6 483/5/6
f 483/5/6 480/5/6 484/5/6
f 481/5/6 482/5/6 485/5/6
f 485/5/6 482/5/6 486/5/6
f 487/5/6 488/5/6 489/5/6
f 489/5/6 488/5/6 490/5/6
