# MagicaVoxel @ Ephtracy

# material
mtllib mason.mtl
usemtl palette

# normals
vn -1 0 0
vn 1 0 0
vn 0 0 1
vn 0 0 -1
vn 0 -1 0
vn 0 1 0

# texcoords
vt 0.0410156 0.5
vt 0.439453 0.5
vt 0.458984 0.5
vt 0.462891 0.5
vt 0.466797 0.5
vt 0.474609 0.5
vt 0.501953 0.5
vt 0.708984 0.5
vt 0.810547 0.5
vt 0.884766 0.5
vt 0.923828 0.5
vt 0.935547 0.5
vt 0.947266 0.5
vt 0.994141 0.5

# verts
v -14 20 -0
v -14 20 -6
v -14 24 -0
v -14 24 -6
v -14 34 -6
v -14 34 -9
v -14 39 -0
v -14 39 -9
v -12 39 -0
v -12 39 -9
v -12 40 -0
v -12 40 -9
v -8 0 5
v -8 0 -7
v -8 4 5
v -8 4 -0
v -8 4 -7
v -8 5 -0
v -8 5 -7
v -8 21 -7
v -8 21 -9
v -8 23 -0
v -8 23 -9
v -8 25 -0
v -8 25 -9
v -8 34 -0
v -8 34 -9
v -6 40 -0
v -6 40 -9
v -6 41 -0
v -6 41 -9
v -6 46 -3
v -6 46 -4
v -6 48 -3
v -6 48 -4
v -5 43 -0
v -5 43 -3
v -5 46 -3
v -5 46 -4
v -5 46 -7
v -5 48 -3
v -5 48 -4
v -5 53 -0
v -5 53 -7
v -4 41 -0
v -4 41 -8
v -4 42 -0
v -4 42 -2
v -4 42 -8
v -4 43 1
v -4 43 -0
v -4 43 -2
v -4 43 -3
v -4 43 -7
v -4 45 1
v -4 45 -0
v -4 46 -3
v -4 46 -4
v -4 46 -7
v -4 48 -7
v -4 48 -8
v -4 52 -7
v -4 52 -8
v -3 41 1
v -3 41 -0
v -3 42 -0
v -3 42 -2
v -3 42 -7
v -3 43 1
v -3 43 -0
v -3 43 -2
v -3 43 -7
v -3 53 -0
v -3 53 -7
v -3 54 -0
v -3 54 -7
v -1 44 1
v -1 44 -0
v -1 46 1
v -1 46 -0
v 0 23 -7
v 0 23 -8
v 0 24 -7
v 0 24 -8
v 2 0 5
v 2 0 -7
v 2 4 5
v 2 4 -0
v 2 4 -7
v 2 5 -0
v 2 5 -7
v 2 18 -0
v 2 18 -7
v 2 42 1
v 2 42 -0
v 2 43 1
v 2 43 -0
v 3 44 1
v 3 44 -0
v 3 45 1
v 3 45 -0
v 10 20 -0
v 10 20 -6
v 10 23 -3
v 10 23 -5
v 10 24 -0
v 10 24 -3
v 10 24 -5
v 10 24 -6
v 10 34 -0
v 10 34 -6
v -10 20 -0
v -10 20 -6
v -10 23 -3
v -10 23 -5
v -10 24 -0
v -10 24 -3
v -10 24 -5
v -10 24 -6
v -10 34 -0
v -10 34 -6
v -3 44 1
v -3 44 -0
v -3 45 1
v -3 45 -0
v -2 0 5
v -2 0 -7
v -2 4 5
v -2 4 -0
v -2 4 -7
v -2 5 -0
v -2 5 -7
v -2 18 -0
v -2 18 -7
v -2 42 1
v -2 42 -0
v -2 43 1
v -2 43 -0
v -1 23 -7
v -1 23 -8
v -1 24 -7
v -1 24 -8
v 1 44 1
v 1 44 -0
v 1 46 1
v 1 46 -0
v 3 41 1
v 3 41 -0
v 3 42 -0
v 3 42 -2
v 3 42 -7
v 3 43 1
v 3 43 -0
v 3 43 -2
v 3 43 -7
v 3 53 -0
v 3 53 -7
v 3 54 -0
v 3 54 -7
v 4 41 -0
v 4 41 -8
v 4 42 -0
v 4 42 -2
v 4 42 -8
v 4 43 1
v 4 43 -0
v 4 43 -2
v 4 43 -3
v 4 43 -7
v 4 45 1
v 4 45 -0
v 4 46 -3
v 4 46 -4
v 4 46 -7
v 4 48 -7
v 4 48 -8
v 4 52 -7
v 4 52 -8
v 5 43 -0
v 5 43 -3
v 5 46 -3
v 5 46 -4
v 5 46 -7
v 5 48 -3
v 5 48 -4
v 5 53 -0
v 5 53 -7
v 6 40 -0
v 6 40 -9
v 6 41 -0
v 6 41 -9
v 6 46 -3
v 6 46 -4
v 6 48 -3
v 6 48 -4
v 8 0 5
v 8 0 -7
v 8 4 5
v 8 4 -0
v 8 4 -7
v 8 5 -0
v 8 5 -7
v 8 21 -7
v 8 21 -9
v 8 23 -0
v 8 23 -9
v 8 25 -0
v 8 25 -9
v 8 34 -0
v 8 34 -9
v 12 39 -0
v 12 39 -9
v 12 40 -0
v 12 40 -9
v 14 20 -0
v 14 20 -6
v 14 24 -0
v 14 24 -6
v 14 34 -6
v 14 34 -9
v 14 39 -0
v 14 39 -9
v -8 0 5
v -8 4 5
v -2 0 5
v -2 4 5
v 2 0 5
v 2 4 5
v 8 0 5
v 8 4 5
v -4 43 1
v -4 45 1
v -3 41 1
v -3 43 1
v -3 44 1
v -3 45 1
v -2 42 1
v -2 43 1
v -1 44 1
v -1 46 1
v 1 44 1
v 1 46 1
v 2 42 1
v 2 43 1
v 3 41 1
v 3 43 1
v 3 44 1
v 3 45 1
v 4 43 1
v 4 45 1
v -14 20 -0
v -14 24 -0
v -14 39 -0
v -12 39 -0
v -12 40 -0
v -10 20 -0
v -10 24 -0
v -10 34 -0
v -8 4 -0
v -8 5 -0
v -8 23 -0
v -8 25 -0
v -8 34 -0
v -6 40 -0
v -6 41 -0
v -5 43 -0
v -5 53 -0
v -4 41 -0
v -4 42 -0
v -4 43 -0
v -4 45 -0
v -4 52 -0
v -3 41 -0
v -3 42 -0
v -3 43 -0
v -3 44 -0
v -3 45 -0
v -3 46 -0
v -3 48 -0
v -3 53 -0
v -3 54 -0
v -2 4 -0
v -2 5 -0
v -2 18 -0
v -2 40 -0
v -2 41 -0
v -2 42 -0
v -2 43 -0
v -2 46 -0
v -2 48 -0
v -2 50 -0
v -2 52 -0
v -1 39 -0
v -1 40 -0
v -1 42 -0
v -1 43 -0
v -1 44 -0
v -1 46 -0
v -1 48 -0
v 1 39 -0
v 1 40 -0
v 1 42 -0
v 1 43 -0
v 1 44 -0
v 1 46 -0
v 1 48 -0
v 2 4 -0
v 2 5 -0
v 2 18 -0
v 2 40 -0
v 2 41 -0
v 2 42 -0
v 2 43 -0
v 2 46 -0
v 2 48 -0
v 2 50 -0
v 2 52 -0
v 3 41 -0
v 3 42 -0
v 3 43 -0
v 3 44 -0
v 3 45 -0
v 3 46 -0
v 3 48 -0
v 3 53 -0
v 3 54 -0
v 4 41 -0
v 4 42 -0
v 4 43 -0
v 4 45 -0
v 4 52 -0
v 5 43 -0
v 5 53 -0
v 6 40 -0
v 6 41 -0
v 8 4 -0
v 8 5 -0
v 8 23 -0
v 8 25 -0
v 8 34 -0
v 10 20 -0
v 10 24 -0
v 10 34 -0
v 12 39 -0
v 12 40 -0
v 14 20 -0
v 14 24 -0
v 14 39 -0
v -6 46 -3
v -6 48 -3
v -5 46 -3
v -5 48 -3
v 5 46 -3
v 5 48 -3
v 6 46 -3
v 6 48 -3
v -1 23 -8
v -1 24 -8
v 0 23 -8
v 0 24 -8
v -4 42 -2
v -4 43 -2
v -3 42 -2
v -3 43 -2
v 3 42 -2
v 3 43 -2
v 4 42 -2
v 4 43 -2
v -5 43 -3
v -5 46 -3
v -4 43 -3
v -4 46 -3
v 4 43 -3
v 4 46 -3
v 5 43 -3
v 5 46 -3
v -6 46 -4
v -6 48 -4
v -5 46 -4
v -5 48 -4
v 5 46 -4
v 5 48 -4
v 6 46 -4
v 6 48 -4
v -14 20 -6
v -14 24 -6
v -14 34 -6
v -10 20 -6
v -10 24 -6
v -10 34 -6
v 10 20 -6
v 10 24 -6
v 10 34 -6
v 14 20 -6
v 14 24 -6
v 14 34 -6
v -8 0 -7
v -8 4 -7
v -8 5 -7
v -8 21 -7
v -5 46 -7
v -5 53 -7
v -4 43 -7
v -4 46 -7
v -4 48 -7
v -4 52 -7
v -3 42 -7
v -3 43 -7
v -3 53 -7
v -3 54 -7
v -2 0 -7
v -2 4 -7
v -2 5 -7
v -2 18 -7
v -1 23 -7
v -1 24 -7
v 0 23 -7
v 0 24 -7
v 2 0 -7
v 2 4 -7
v 2 5 -7
v 2 18 -7
v 3 42 -7
v 3 43 -7
v 3 53 -7
v 3 54 -7
v 4 43 -7
v 4 46 -7
v 4 48 -7
v 4 52 -7
v 5 46 -7
v 5 53 -7
v 8 0 -7
v 8 4 -7
v 8 5 -7
v 8 21 -7
v -4 41 -8
v -4 42 -8
v -4 48 -8
v -4 52 -8
v 4 41 -8
v 4 42 -8
v 4 48 -8
v 4 52 -8
v -14 34 -9
v -14 39 -9
v -12 39 -9
v -12 40 -9
v -8 21 -9
v -8 23 -9
v -8 25 -9
v -8 34 -9
v -6 40 -9
v -6 41 -9
v 6 40 -9
v 6 41 -9
v 8 21 -9
v 8 23 -9
v 8 25 -9
v 8 34 -9
v 12 39 -9
v 12 40 -9
v 14 34 -9
v 14 39 -9
v -8 0 5
v -2 0 5
v 2 0 5
v 8 0 5
v -8 0 -7
v -2 0 -7
v 2 0 -7
v 8 0 -7
v -2 18 -0
v 2 18 -0
v -2 18 -7
v 2 18 -7
v -14 20 -0
v -10 20 -0
v 10 20 -0
v 14 20 -0
v -14 20 -6
v -10 20 -6
v 10 20 -6
v 14 20 -6
v -8 21 -7
v 8 21 -7
v -8 21 -9
v 8 21 -9
v -1 24 -7
v 0 24 -7
v -1 24 -8
v 0 24 -8
v -10 34 -0
v -8 34 -0
v 8 34 -0
v 10 34 -0
v -14 34 -6
v -10 34 -6
v 10 34 -6
v 14 34 -6
v -14 34 -9
v -8 34 -9
v 8 34 -9
v 14 34 -9
v -3 41 1
v 3 41 1
v -3 41 -0
v -2 41 -0
v 2 41 -0
v 3 41 -0
v -4 43 1
v -3 43 1
v -2 43 1
v 2 43 1
v 3 43 1
v 4 43 1
v -5 43 -0
v -4 43 -0
v -3 43 -0
v -2 43 -0
v -1 43 -0
v 1 43 -0
v 2 43 -0
v 3 43 -0
v 4 43 -0
v 5 43 -0
v -4 43 -2
v -3 43 -2
v 3 43 -2
v 4 43 -2
v -5 43 -3
v -4 43 -3
v 4 43 -3
v 5 43 -3
v -4 43 -7
v -3 43 -7
v 3 43 -7
v 4 43 -7
v -6 46 -3
v -5 46 -3
v -4 46 -3
v 4 46 -3
v 5 46 -3
v 6 46 -3
v -6 46 -4
v -5 46 -4
v -4 46 -4
v 4 46 -4
v 5 46 -4
v 6 46 -4
v -5 46 -7
v -4 46 -7
v 4 46 -7
v 5 46 -7
v -4 48 -7
v 4 48 -7
v -4 48 -8
v 4 48 -8
v -8 4 5
v -2 4 5
v 2 4 5
v 8 4 5
v -8 4 -0
v -2 4 -0
v 2 4 -0
v 8 4 -0
v -1 23 -7
v 0 23 -7
v -1 23 -8
v 0 23 -8
v -14 39 -0
v -12 39 -0
v 12 39 -0
v 14 39 -0
v -14 39 -9
v -12 39 -9
v 12 39 -9
v 14 39 -9
v -12 40 -0
v -6 40 -0
v 6 40 -0
v 12 40 -0
v -12 40 -9
v -6 40 -9
v 6 40 -9
v 12 40 -9
v -6 41 -0
v -4 41 -0
v 4 41 -0
v 6 41 -0
v -4 41 -8
v 4 41 -8
v -6 41 -9
v 6 41 -9
v -2 42 1
v 2 42 1
v -2 42 -0
v -1 42 -0
v 1 42 -0
v 2 42 -0
v -4 42 -2
v -3 42 -2
v 3 42 -2
v 4 42 -2
v -3 42 -7
v 3 42 -7
v -4 42 -8
v 4 42 -8
v -3 44 1
v -1 44 1
v 1 44 1
v 3 44 1
v -3 44 -0
v -1 44 -0
v 1 44 -0
v 3 44 -0
v -4 45 1
v -3 45 1
v 3 45 1
v 4 45 1
v -4 45 -0
v -3 45 -0
v 3 45 -0
v 4 45 -0
v -1 46 1
v 1 46 1
v -1 46 -0
v 1 46 -0
v -6 48 -3
v -5 48 -3
v 5 48 -3
v 6 48 -3
v -6 48 -4
v -5 48 -4
v 5 48 -4
v 6 48 -4
v -4 52 -7
v 4 52 -7
v -4 52 -8
v 4 52 -8
v -5 53 -0
v -3 53 -0
v 3 53 -0
v 5 53 -0
v -5 53 -7
v -3 53 -7
v 3 53 -7
v 5 53 -7
v -3 54 -0
v 3 54 -0
v -3 54 -7
v 3 54 -7

# faces
f 3/6/1 2/6/1 1/6/1
f 4/6/1 2/6/1 3/6/1
f 5/8/1 4/8/1 3/8/1
f 7/8/1 5/8/1 3/8/1
f 7/8/1 6/8/1 5/8/1
f 8/8/1 6/8/1 7/8/1
f 11/8/1 10/8/1 9/8/1
f 12/8/1 10/8/1 11/8/1
f 15/12/1 14/12/1 13/12/1
f 16/12/1 14/12/1 15/12/1
f 17/12/1 14/12/1 16/12/1
f 18/4/1 17/4/1 16/4/1
f 19/4/1 17/4/1 18/4/1
f 20/9/1 19/9/1 18/9/1
f 22/9/1 20/9/1 18/9/1
f 22/9/1 21/9/1 20/9/1
f 23/9/1 21/9/1 22/9/1
f 24/12/1 23/12/1 22/12/1
f 25/12/1 23/12/1 24/12/1
f 26/8/1 25/8/1 24/8/1
f 27/8/1 25/8/1 26/8/1
f 30/8/1 29/8/1 28/8/1
f 31/8/1 29/8/1 30/8/1
f 34/6/1 33/6/1 32/6/1
f 35/6/1 33/6/1 34/6/1
f 38/14/1 37/14/1 36/14/1
f 41/14/1 38/14/1 36/14/1
f 42/14/1 40/14/1 39/14/1
f 43/14/1 41/14/1 36/14/1
f 43/14/1 42/14/1 41/14/1
f 44/14/1 40/14/1 42/14/1
f 44/14/1 42/14/1 43/14/1
f 47/8/1 46/8/1 45/8/1
f 48/8/1 46/8/1 47/8/1
f 49/8/1 46/8/1 48/8/1
f 51/14/1 48/14/1 47/14/1
f 52/14/1 48/14/1 51/14/1
f 55/14/1 51/14/1 50/14/1
f 56/14/1 51/14/1 55/14/1
f 57/6/1 54/6/1 53/6/1
f 58/6/1 54/6/1 57/6/1
f 59/6/1 54/6/1 58/6/1
f 62/14/1 61/14/1 60/14/1
f 63/14/1 61/14/1 62/14/1
f 66/14/1 65/14/1 64/14/1
f 69/14/1 66/14/1 64/14/1
f 70/14/1 66/14/1 69/14/1
f 71/6/1 68/6/1 67/6/1
f 72/6/1 68/6/1 71/6/1
f 75/14/1 74/14/1 73/14/1
f 76/14/1 74/14/1 75/14/1
f 79/6/1 78/6/1 77/6/1
f 80/6/1 78/6/1 79/6/1
f 83/12/1 82/12/1 81/12/1
f 84/12/1 82/12/1 83/12/1
f 87/12/1 86/12/1 85/12/1
f 88/12/1 86/12/1 87/12/1
f 89/12/1 86/12/1 88/12/1
f 90/4/1 89/4/1 88/4/1
f 91/4/1 89/4/1 90/4/1
f 92/9/1 91/9/1 90/9/1
f 93/9/1 91/9/1 92/9/1
f 96/14/1 95/14/1 94/14/1
f 97/14/1 95/14/1 96/14/1
f 100/14/1 99/14/1 98/14/1
f 101/14/1 99/14/1 100/14/1
f 104/6/1 103/6/1 102/6/1
f 105/6/1 103/6/1 104/6/1
f 106/6/1 104/6/1 102/6/1
f 107/7/1 105/7/1 104/7/1
f 107/6/1 104/6/1 106/6/1
f 108/6/1 103/6/1 105/6/1
f 108/7/1 105/7/1 107/7/1
f 109/6/1 103/6/1 108/6/1
f 110/8/1 107/8/1 106/8/1
f 110/8/1 108/8/1 107/8/1
f 110/8/1 109/8/1 108/8/1
f 111/8/1 109/8/1 110/8/1
f 112/6/2 113/6/2 114/6/2
f 114/6/2 113/6/2 115/6/2
f 112/6/2 114/6/2 116/6/2
f 114/7/2 115/7/2 117/7/2
f 116/6/2 114/6/2 117/6/2
f 115/6/2 113/6/2 118/6/2
f 117/7/2 115/7/2 118/7/2
f 118/6/2 113/6/2 119/6/2
f 116/8/2 117/8/2 120/8/2
f 117/8/2 118/8/2 120/8/2
f 118/8/2 119/8/2 120/8/2
f 120/8/2 119/8/2 121/8/2
f 122/14/2 123/14/2 124/14/2
f 124/14/2 123/14/2 125/14/2
f 126/12/2 127/12/2 128/12/2
f 128/12/2 127/12/2 129/12/2
f 129/12/2 127/12/2 130/12/2
f 129/4/2 130/4/2 131/4/2
f 131/4/2 130/4/2 132/4/2
f 131/9/2 132/9/2 133/9/2
f 133/9/2 132/9/2 134/9/2
f 135/14/2 136/14/2 137/14/2
f 137/14/2 136/14/2 138/14/2
f 139/12/2 140/12/2 141/12/2
f 141/12/2 140/12/2 142/12/2
f 143/6/2 144/6/2 145/6/2
f 145/6/2 144/6/2 146/6/2
f 147/14/2 148/14/2 149/14/2
f 147/14/2 149/14/2 152/14/2
f 152/14/2 149/14/2 153/14/2
f 150/6/2 151/6/2 154/6/2
f 154/6/2 151/6/2 155/6/2
f 156/14/2 157/14/2 158/14/2
f 158/14/2 157/14/2 159/14/2
f 160/8/2 161/8/2 162/8/2
f 162/8/2 161/8/2 163/8/2
f 163/8/2 161/8/2 164/8/2
f 162/14/2 163/14/2 166/14/2
f 166/14/2 163/14/2 167/14/2
f 165/14/2 166/14/2 170/14/2
f 170/14/2 166/14/2 171/14/2
f 168/6/2 169/6/2 172/6/2
f 172/6/2 169/6/2 173/6/2
f 173/6/2 169/6/2 174/6/2
f 175/14/2 176/14/2 177/14/2
f 177/14/2 176/14/2 178/14/2
f 179/14/2 180/14/2 181/14/2
f 179/14/2 181/14/2 184/14/2
f 182/14/2 183/14/2 185/14/2
f 179/14/2 184/14/2 186/14/2
f 184/14/2 185/14/2 186/14/2
f 185/14/2 183/14/2 187/14/2
f 186/14/2 185/14/2 187/14/2
f 188/8/2 189/8/2 190/8/2
f 190/8/2 189/8/2 191/8/2
f 192/6/2 193/6/2 194/6/2
f 194/6/2 193/6/2 195/6/2
f 196/12/2 197/12/2 198/12/2
f 198/12/2 197/12/2 199/12/2
f 199/12/2 197/12/2 200/12/2
f 199/4/2 200/4/2 201/4/2
f 201/4/2 200/4/2 202/4/2
f 201/9/2 202/9/2 203/9/2
f 201/9/2 203/9/2 205/9/2
f 203/9/2 204/9/2 205/9/2
f 205/9/2 204/9/2 206/9/2
f 205/12/2 206/12/2 207/12/2
f 207/12/2 206/12/2 208/12/2
f 207/8/2 208/8/2 209/8/2
f 209/8/2 208/8/2 210/8/2
f 211/8/2 212/8/2 213/8/2
f 213/8/2 212/8/2 214/8/2
f 215/6/2 216/6/2 217/6/2
f 217/6/2 216/6/2 218/6/2
f 217/8/2 218/8/2 219/8/2
f 217/8/2 219/8/2 221/8/2
f 219/8/2 220/8/2 221/8/2
f 221/8/2 220/8/2 222/8/2
f 225/12/3 224/12/3 223/12/3
f 226/12/3 224/12/3 225/12/3
f 229/12/3 228/12/3 227/12/3
f 230/12/3 228/12/3 229/12/3
f 234/14/3 232/14/3 231/14/3
f 235/14/3 232/14/3 234/14/3
f 236/14/3 232/14/3 235/14/3
f 237/14/3 234/14/3 233/14/3
f 237/14/3 235/14/3 234/14/3
f 238/14/3 235/14/3 237/14/3
f 239/14/3 235/14/3 238/14/3
f 241/14/3 239/14/3 238/14/3
f 241/6/3 240/6/3 239/6/3
f 242/6/3 240/6/3 241/6/3
f 243/14/3 237/14/3 233/14/3
f 244/14/3 241/14/3 238/14/3
f 245/14/3 243/14/3 233/14/3
f 245/14/3 244/14/3 243/14/3
f 246/14/3 241/14/3 244/14/3
f 246/14/3 244/14/3 245/14/3
f 247/14/3 241/14/3 246/14/3
f 249/14/3 248/14/3 247/14/3
f 249/14/3 247/14/3 246/14/3
f 250/14/3 248/14/3 249/14/3
f 254/8/3 253/8/3 252/8/3
f 256/6/3 252/6/3 251/6/3
f 257/8/3 255/8/3 254/8/3
f 257/6/3 252/6/3 256/6/3
f 257/8/3 254/8/3 252/8/3
f 258/8/3 255/8/3 257/8/3
f 263/8/3 255/8/3 258/8/3
f 264/8/3 255/8/3 263/8/3
f 264/8/3 263/8/3 262/8/3
f 268/8/3 265/8/3 264/8/3
f 270/14/3 267/14/3 266/14/3
f 271/14/3 267/14/3 270/14/3
f 272/14/3 267/14/3 271/14/3
f 273/8/3 269/8/3 268/8/3
f 273/8/3 268/8/3 264/8/3
f 274/14/3 270/14/3 269/14/3
f 274/8/3 269/8/3 273/8/3
f 275/14/3 270/14/3 274/14/3
f 277/6/3 272/6/3 271/6/3
f 278/6/3 272/6/3 277/6/3
f 279/6/3 272/6/3 278/6/3
f 280/14/3 267/14/3 272/14/3
f 282/4/3 260/4/3 259/4/3
f 283/9/3 261/9/3 260/9/3
f 283/4/3 260/4/3 282/4/3
f 284/9/3 261/9/3 283/9/3
f 285/8/3 264/8/3 262/8/3
f 285/8/3 273/8/3 264/8/3
f 286/8/3 273/8/3 285/8/3
f 289/5/3 279/5/3 278/5/3
f 289/6/3 277/6/3 276/6/3
f 289/6/3 278/6/3 277/6/3
f 290/6/3 272/6/3 279/6/3
f 290/5/3 279/5/3 289/5/3
f 291/6/3 272/6/3 290/6/3
f 292/14/3 281/14/3 280/14/3
f 292/6/3 272/6/3 291/6/3
f 292/14/3 280/14/3 272/14/3
f 293/8/3 285/8/3 262/8/3
f 294/6/3 286/6/3 285/6/3
f 294/8/3 285/8/3 293/8/3
f 295/6/3 288/6/3 287/6/3
f 296/6/3 288/6/3 295/6/3
f 297/6/3 289/6/3 276/6/3
f 298/12/3 290/12/3 289/12/3
f 298/6/3 289/6/3 297/6/3
f 299/6/3 291/6/3 290/6/3
f 299/12/3 290/12/3 298/12/3
f 300/8/3 293/8/3 262/8/3
f 300/6/3 294/6/3 293/6/3
f 301/6/3 286/6/3 294/6/3
f 301/6/3 294/6/3 300/6/3
f 302/13/3 296/13/3 295/13/3
f 303/13/3 296/13/3 302/13/3
f 305/6/3 299/6/3 298/6/3
f 306/6/3 291/6/3 299/6/3
f 306/6/3 299/6/3 305/6/3
f 309/9/3 261/9/3 284/9/3
f 310/6/3 286/6/3 301/6/3
f 310/8/3 301/8/3 300/8/3
f 311/6/3 286/6/3 310/6/3
f 312/6/3 303/6/3 302/6/3
f 313/6/3 303/6/3 312/6/3
f 314/6/3 305/6/3 304/6/3
f 314/12/3 306/12/3 305/12/3
f 315/6/3 291/6/3 306/6/3
f 315/12/3 306/12/3 314/12/3
f 316/14/3 292/14/3 291/14/3
f 316/6/3 291/6/3 315/6/3
f 317/14/3 281/14/3 292/14/3
f 317/14/3 292/14/3 316/14/3
f 318/8/3 311/8/3 310/8/3
f 321/6/3 314/6/3 304/6/3
f 322/6/3 314/6/3 321/6/3
f 323/5/3 315/5/3 314/5/3
f 323/6/3 314/6/3 322/6/3
f 324/6/3 316/6/3 315/6/3
f 324/5/3 315/5/3 323/5/3
f 324/6/3 317/6/3 316/6/3
f 325/14/3 281/14/3 317/14/3
f 326/14/3 281/14/3 325/14/3
f 327/8/3 318/8/3 310/8/3
f 327/8/3 319/8/3 318/8/3
f 328/14/3 320/14/3 319/14/3
f 328/8/3 319/8/3 327/8/3
f 329/14/3 320/14/3 328/14/3
f 330/6/3 323/6/3 322/6/3
f 330/6/3 324/6/3 323/6/3
f 331/6/3 317/6/3 324/6/3
f 331/14/3 325/14/3 317/14/3
f 331/6/3 324/6/3 330/6/3
f 332/14/3 330/14/3 329/14/3
f 332/14/3 331/14/3 330/14/3
f 333/14/3 325/14/3 331/14/3
f 333/14/3 331/14/3 332/14/3
f 334/8/3 327/8/3 310/8/3
f 334/8/3 310/8/3 300/8/3
f 335/8/3 327/8/3 334/8/3
f 336/4/3 308/4/3 307/4/3
f 337/9/3 309/9/3 308/9/3
f 337/4/3 308/4/3 336/4/3
f 338/12/3 262/12/3 261/12/3
f 338/9/3 309/9/3 337/9/3
f 338/9/3 261/9/3 309/9/3
f 339/8/3 300/8/3 262/8/3
f 339/12/3 262/12/3 338/12/3
f 339/8/3 334/8/3 300/8/3
f 340/8/3 334/8/3 339/8/3
f 343/8/3 334/8/3 340/8/3
f 344/8/3 334/8/3 343/8/3
f 344/8/3 343/8/3 342/8/3
f 345/8/3 334/8/3 344/8/3
f 346/6/3 342/6/3 341/6/3
f 347/8/3 344/8/3 342/8/3
f 347/6/3 342/6/3 346/6/3
f 348/8/3 344/8/3 347/8/3
f 351/6/3 350/6/3 349/6/3
f 352/6/3 350/6/3 351/6/3
f 355/6/3 354/6/3 353/6/3
f 356/6/3 354/6/3 355/6/3
f 359/12/3 358/12/3 357/12/3
f 360/12/3 358/12/3 359/12/3
f 361/14/4 362/14/4 363/14/4
f 363/14/4 362/14/4 364/14/4
f 365/14/4 366/14/4 367/14/4
f 367/14/4 366/14/4 368/14/4
f 369/14/4 370/14/4 371/14/4
f 371/14/4 370/14/4 372/14/4
f 373/14/4 374/14/4 375/14/4
f 375/14/4 374/14/4 376/14/4
f 377/6/4 378/6/4 379/6/4
f 379/6/4 378/6/4 380/6/4
f 381/6/4 382/6/4 383/6/4
f 383/6/4 382/6/4 384/6/4
f 385/6/4 386/6/4 388/6/4
f 386/8/4 387/8/4 389/8/4
f 388/6/4 386/6/4 389/6/4
f 389/8/4 387/8/4 390/8/4
f 391/6/4 392/6/4 394/6/4
f 392/8/4 393/8/4 395/8/4
f 394/6/4 392/6/4 395/6/4
f 395/8/4 393/8/4 396/8/4
f 401/14/4 402/14/4 404/14/4
f 404/14/4 402/14/4 405/14/4
f 405/14/4 402/14/4 406/14/4
f 403/6/4 404/6/4 408/6/4
f 406/14/4 402/14/4 409/14/4
f 397/12/4 398/12/4 411/12/4
f 398/4/4 399/4/4 412/4/4
f 411/12/4 398/12/4 412/12/4
f 399/9/4 400/9/4 413/9/4
f 412/4/4 399/4/4 413/4/4
f 413/9/4 400/9/4 414/9/4
f 415/12/4 416/12/4 417/12/4
f 417/12/4 416/12/4 418/12/4
f 414/9/4 400/9/4 422/9/4
f 407/6/4 408/6/4 423/6/4
f 408/6/4 404/6/4 424/6/4
f 423/6/4 408/6/4 424/6/4
f 409/14/4 410/14/4 425/14/4
f 406/14/4 409/14/4 425/14/4
f 425/14/4 410/14/4 426/14/4
f 424/6/4 404/6/4 427/6/4
f 404/14/4 405/14/4 428/14/4
f 427/6/4 404/6/4 428/6/4
f 428/14/4 405/14/4 429/14/4
f 406/14/4 425/14/4 430/14/4
f 428/14/4 429/14/4 431/14/4
f 429/14/4 430/14/4 431/14/4
f 430/14/4 425/14/4 432/14/4
f 431/14/4 430/14/4 432/14/4
f 419/12/4 420/12/4 433/12/4
f 420/4/4 421/4/4 434/4/4
f 433/12/4 420/12/4 434/12/4
f 421/9/4 422/9/4 435/9/4
f 434/4/4 421/4/4 435/4/4
f 422/9/4 400/9/4 436/9/4
f 435/9/4 422/9/4 436/9/4
f 437/8/4 438/8/4 441/8/4
f 441/8/4 438/8/4 442/8/4
f 439/14/4 440/14/4 443/14/4
f 443/14/4 440/14/4 444/14/4
f 445/8/4 446/8/4 447/8/4
f 445/8/4 447/8/4 452/8/4
f 447/8/4 448/8/4 452/8/4
f 452/8/4 448/8/4 453/8/4
f 451/8/4 452/8/4 453/8/4
f 451/8/4 453/8/4 455/8/4
f 453/8/4 454/8/4 455/8/4
f 455/8/4 454/8/4 456/8/4
f 449/9/4 450/9/4 457/9/4
f 450/12/4 451/12/4 458/12/4
f 457/9/4 450/9/4 458/9/4
f 451/8/4 455/8/4 459/8/4
f 458/12/4 451/12/4 459/12/4
f 459/8/4 455/8/4 460/8/4
f 460/8/4 455/8/4 461/8/4
f 461/8/4 455/8/4 462/8/4
f 460/8/4 461/8/4 463/8/4
f 463/8/4 461/8/4 464/8/4
f 469/12/5 466/12/5 465/12/5
f 470/12/5 466/12/5 469/12/5
f 471/12/5 468/12/5 467/12/5
f 472/12/5 468/12/5 471/12/5
f 475/9/5 474/9/5 473/9/5
f 476/9/5 474/9/5 475/9/5
f 481/6/5 478/6/5 477/6/5
f 482/6/5 478/6/5 481/6/5
f 483/6/5 480/6/5 479/6/5
f 484/6/5 480/6/5 483/6/5
f 487/9/5 486/9/5 485/9/5
f 488/9/5 486/9/5 487/9/5
f 491/12/5 490/12/5 489/12/5
f 492/12/5 490/12/5 491/12/5
f 498/8/5 494/8/5 493/8/5
f 499/8/5 496/8/5 495/8/5
f 501/8/5 498/8/5 497/8/5
f 502/8/5 494/8/5 498/8/5
f 502/8/5 498/8/5 501/8/5
f 503/8/5 500/8/5 499/8/5
f 503/8/5 499/8/5 495/8/5
f 504/8/5 500/8/5 503/8/5
f 507/14/5 506/14/5 505/14/5
f 508/14/5 506/14/5 507/14/5
f 509/14/5 506/14/5 508/14/5
f 510/14/5 506/14/5 509/14/5
f 518/14/5 512/14/5 511/14/5
f 519/14/5 512/14/5 518/14/5
f 520/14/5 514/14/5 513/14/5
f 521/14/5 514/14/5 520/14/5
f 522/14/5 514/14/5 521/14/5
f 523/14/5 514/14/5 522/14/5
f 524/14/5 516/14/5 515/14/5
f 525/14/5 516/14/5 524/14/5
f 527/14/5 518/14/5 517/14/5
f 530/14/5 526/14/5 525/14/5
f 531/14/5 527/14/5 517/14/5
f 532/6/5 528/6/5 527/6/5
f 532/14/5 527/14/5 531/14/5
f 533/6/5 530/6/5 529/6/5
f 533/14/5 526/14/5 530/14/5
f 534/14/5 526/14/5 533/14/5
f 535/6/5 528/6/5 532/6/5
f 536/6/5 528/6/5 535/6/5
f 537/6/5 533/6/5 529/6/5
f 538/6/5 533/6/5 537/6/5
f 545/6/5 540/6/5 539/6/5
f 546/10/5 541/10/5 540/10/5
f 546/6/5 540/6/5 545/6/5
f 547/10/5 541/10/5 546/10/5
f 548/10/5 543/10/5 542/10/5
f 549/6/5 544/6/5 543/6/5
f 549/10/5 543/10/5 548/10/5
f 550/6/5 544/6/5 549/6/5
f 551/14/5 547/14/5 546/14/5
f 552/14/5 547/14/5 551/14/5
f 553/14/5 549/14/5 548/14/5
f 554/14/5 549/14/5 553/14/5
f 557/14/5 556/14/5 555/14/5
f 558/14/5 556/14/5 557/14/5
f 559/12/6 560/12/6 563/12/6
f 563/12/6 560/12/6 564/12/6
f 561/12/6 562/12/6 565/12/6
f 565/12/6 562/12/6 566/12/6
f 567/9/6 568/9/6 569/9/6
f 569/9/6 568/9/6 570/9/6
f 571/8/6 572/8/6 575/8/6
f 575/8/6 572/8/6 576/8/6
f 573/8/6 574/8/6 577/8/6
f 577/8/6 574/8/6 578/8/6
f 579/8/6 580/8/6 583/8/6
f 583/8/6 580/8/6 584/8/6
f 581/8/6 582/8/6 585/8/6
f 585/8/6 582/8/6 586/8/6
f 587/8/6 588/8/6 591/8/6
f 589/8/6 590/8/6 592/8/6
f 587/8/6 591/8/6 593/8/6
f 591/8/6 592/8/6 593/8/6
f 592/8/6 590/8/6 594/8/6
f 593/8/6 592/8/6 594/8/6
f 595/14/6 596/14/6 597/14/6
f 597/14/6 596/14/6 598/14/6
f 598/14/6 596/14/6 599/14/6
f 599/14/6 596/14/6 600/14/6
f 601/8/6 602/8/6 605/8/6
f 603/8/6 604/8/6 606/8/6
f 601/8/6 605/8/6 607/8/6
f 605/8/6 606/8/6 607/8/6
f 606/8/6 604/8/6 608/8/6
f 607/8/6 606/8/6 608/8/6
f 609/14/6 610/14/6 613/14/6
f 613/14/6 610/14/6 614/14/6
f 611/14/6 612/14/6 615/14/6
f 615/14/6 612/14/6 616/14/6
f 617/14/6 618/14/6 621/14/6
f 621/14/6 618/14/6 622/14/6
f 619/14/6 620/14/6 623/14/6
f 623/14/6 620/14/6 624/14/6
f 625/6/6 626/6/6 627/6/6
f 627/6/6 626/6/6 628/6/6
f 629/6/6 630/6/6 633/6/6
f 633/6/6 630/6/6 634/6/6
f 631/6/6 632/6/6 635/6/6
f 635/6/6 632/6/6 636/6/6
f 637/14/6 638/14/6 639/14/6
f 639/14/6 638/14/6 640/14/6
f 641/14/6 642/14/6 645/14/6
f 645/14/6 642/14/6 646/14/6
f 643/14/6 644/14/6 647/14/6
f 647/14/6 644/14/6 648/14/6
f 649/14/6 650/14/6 651/14/6
f 651/14/6 650/14/6 652/14/6
