# MagicaVoxel @ Ephtracy

# material
mtllib board.mtl
usemtl palette

# normals
vn -1 0 0
vn 1 0 0
vn 0 0 1
vn 0 0 -1
vn 0 -1 0
vn 0 1 0

# texcoords
vt 0.259766 0.5
vt 0.310547 0.5

# verts
v -7 0 1
v -7 0 -2
v -7 2 1
v -7 2 -0
v -7 3 1
v -7 3 -0
v -7 4 -0
v -7 4 -1
v -7 7 -0
v -7 7 -1
v -7 11 -1
v -7 11 -2
v -7 13 -1
v -7 13 -2
v -7 15 1
v -7 15 -2
v -5 0 -0
v -5 0 -1
v -5 12 11
v -5 12 1
v -5 12 -2
v -5 12 -11
v -5 15 1
v -5 15 -0
v -5 15 -1
v -5 15 -2
v -5 24 11
v -5 24 -11
v -4 11 12
v -4 11 1
v -4 11 -2
v -4 11 -12
v -4 12 11
v -4 12 1
v -4 12 -2
v -4 12 -11
v -4 24 11
v -4 24 -11
v -4 25 12
v -4 25 -12
v -6 0 -0
v -6 0 -1
v -6 4 -0
v -6 4 -1
v -6 7 -0
v -6 7 -1
v -6 15 -0
v -6 15 -1
v -4 0 1
v -4 0 -2
v -4 3 -1
v -4 3 -2
v -4 6 -1
v -4 6 -2
v -4 8 1
v -4 8 -0
v -4 10 1
v -4 10 -0
v -4 11 1
v -4 11 -2
v -3 11 12
v -3 11 -12
v -3 12 11
v -3 12 -11
v -3 14 9
v -3 14 8
v -3 14 3
v -3 14 2
v -3 14 -4
v -3 14 -5
v -3 14 -8
v -3 14 -9
v -3 15 9
v -3 15 8
v -3 15 7
v -3 15 5
v -3 15 3
v -3 15 2
v -3 15 1
v -3 15 -4
v -3 15 -5
v -3 15 -6
v -3 15 -8
v -3 15 -9
v -3 15 -10
v -3 16 8
v -3 16 7
v -3 16 6
v -3 16 5
v -3 16 3
v -3 16 2
v -3 16 1
v -3 16 -1
v -3 17 7
v -3 17 6
v -3 17 1
v -3 17 -1
v -3 17 -3
v -3 17 -5
v -3 17 -6
v -3 17 -9
v -3 17 -10
v -3 18 2
v -3 18 1
v -3 18 -1
v -3 18 -3
v -3 18 -8
v -3 18 -9
v -3 19 9
v -3 19 8
v -3 20 8
v -3 20 6
v -3 20 3
v -3 20 2
v -3 20 1
v -3 20 -2
v -3 20 -3
v -3 20 -7
v -3 20 -8
v -3 20 -9
v -3 21 10
v -3 21 9
v -3 21 6
v -3 21 4
v -3 21 -2
v -3 21 -3
v -3 21 -5
v -3 21 -7
v -3 21 -8
v -3 22 6
v -3 22 4
v -3 22 3
v -3 22 2
v -3 22 -3
v -3 22 -5
v -3 23 10
v -3 23 9
v -3 24 11
v -3 24 -11
v -3 25 12
v -3 25 -12
v -4 11 12
v -4 25 12
v -3 11 12
v -3 25 12
v -5 12 11
v -5 24 11
v -4 12 11
v -4 24 11
v -7 0 1
v -7 2 1
v -7 3 1
v -7 15 1
v -6 2 1
v -6 3 1
v -5 8 1
v -5 10 1
v -5 12 1
v -5 15 1
v -4 0 1
v -4 8 1
v -4 10 1
v -4 11 1
v -4 12 1
v -6 0 -1
v -6 4 -1
v -6 7 -1
v -6 15 -1
v -5 0 -1
v -5 15 -1
v -6 0 -0
v -6 4 -0
v -6 7 -0
v -6 15 -0
v -5 0 -0
v -5 15 -0
v -7 0 -2
v -7 11 -2
v -7 13 -2
v -7 15 -2
v -6 11 -2
v -6 13 -2
v -5 3 -2
v -5 6 -2
v -5 12 -2
v -5 15 -2
v -4 0 -2
v -4 3 -2
v -4 6 -2
v -4 11 -2
v -4 12 -2
v -5 12 -11
v -5 24 -11
v -4 12 -11
v -4 24 -11
v -4 11 -12
v -4 25 -12
v -3 11 -12
v -3 25 -12
v -7 0 1
v -4 0 1
v -6 0 -0
v -5 0 -0
v -6 0 -1
v -5 0 -1
v -7 0 -2
v -4 0 -2
v -4 11 12
v -3 11 12
v -4 11 1
v -4 11 -2
v -4 11 -12
v -3 11 -12
v -5 12 11
v -4 12 11
v -5 12 1
v -4 12 1
v -5 12 -2
v -4 12 -2
v -5 12 -11
v -4 12 -11
v -7 15 1
v -5 15 1
v -6 15 -0
v -5 15 -0
v -6 15 -1
v -5 15 -1
v -7 15 -2
v -5 15 -2
v -5 24 11
v -4 24 11
v -5 24 -11
v -4 24 -11
v -4 25 12
v -3 25 12
v -4 25 -12
v -3 25 -12

# faces
f 3/1/1 2/1/1 1/1/1
f 4/1/1 2/1/1 3/1/1
f 5/2/1 4/2/1 3/2/1
f 6/1/1 2/1/1 4/1/1
f 6/2/1 4/2/1 5/2/1
f 7/1/1 6/1/1 5/1/1
f 7/1/1 2/1/1 6/1/1
f 8/1/1 2/1/1 7/1/1
f 9/1/1 7/1/1 5/1/1
f 9/2/1 8/2/1 7/2/1
f 10/1/1 2/1/1 8/1/1
f 10/2/1 8/2/1 9/2/1
f 11/1/1 10/1/1 9/1/1
f 11/1/1 2/1/1 10/1/1
f 12/1/1 2/1/1 11/1/1
f 13/1/1 11/1/1 9/1/1
f 13/2/1 12/2/1 11/2/1
f 14/2/1 12/2/1 13/2/1
f 15/1/1 9/1/1 5/1/1
f 15/1/1 13/1/1 9/1/1
f 15/1/1 14/1/1 13/1/1
f 16/1/1 14/1/1 15/1/1
f 23/1/1 20/1/1 19/1/1
f 24/1/1 18/1/1 17/1/1
f 25/1/1 18/1/1 24/1/1
f 26/1/1 22/1/1 21/1/1
f 27/1/1 23/1/1 19/1/1
f 27/1/1 26/1/1 25/1/1
f 27/1/1 25/1/1 24/1/1
f 27/1/1 24/1/1 23/1/1
f 28/1/1 22/1/1 26/1/1
f 28/1/1 26/1/1 27/1/1
f 33/2/1 30/2/1 29/2/1
f 34/2/1 30/2/1 33/2/1
f 35/2/1 32/2/1 31/2/1
f 36/2/1 32/2/1 35/2/1
f 37/2/1 33/2/1 29/2/1
f 38/2/1 32/2/1 36/2/1
f 39/2/1 37/2/1 29/2/1
f 39/2/1 38/2/1 37/2/1
f 40/2/1 32/2/1 38/2/1
f 40/2/1 38/2/1 39/2/1
f 41/1/2 42/1/2 43/1/2
f 43/1/2 42/1/2 44/1/2
f 43/2/2 44/2/2 45/2/2
f 45/2/2 44/2/2 46/2/2
f 45/1/2 46/1/2 47/1/2
f 47/1/2 46/1/2 48/1/2
f 49/1/2 50/1/2 51/1/2
f 51/1/2 50/1/2 52/1/2
f 49/1/2 51/1/2 53/1/2
f 51/2/2 52/2/2 53/2/2
f 53/2/2 52/2/2 54/2/2
f 49/1/2 53/1/2 55/1/2
f 53/1/2 54/1/2 55/1/2
f 55/1/2 54/1/2 56/1/2
f 55/2/2 56/2/2 57/2/2
f 56/1/2 54/1/2 58/1/2
f 57/2/2 56/2/2 58/2/2
f 57/1/2 58/1/2 59/1/2
f 58/1/2 54/1/2 60/1/2
f 59/1/2 58/1/2 60/1/2
f 61/2/2 62/2/2 63/2/2
f 63/2/2 62/2/2 64/2/2
f 63/1/2 64/1/2 65/1/2
f 65/1/2 64/1/2 66/1/2
f 66/1/2 64/1/2 67/1/2
f 67/1/2 64/1/2 68/1/2
f 68/1/2 64/1/2 69/1/2
f 69/1/2 64/1/2 70/1/2
f 70/1/2 64/1/2 71/1/2
f 71/1/2 64/1/2 72/1/2
f 63/1/2 65/1/2 73/1/2
f 65/2/2 66/2/2 73/2/2
f 66/1/2 67/1/2 74/1/2
f 73/2/2 66/2/2 74/2/2
f 74/1/2 67/1/2 75/1/2
f 75/1/2 67/1/2 76/1/2
f 67/2/2 68/2/2 77/2/2
f 76/1/2 67/1/2 77/1/2
f 68/1/2 69/1/2 78/1/2
f 77/2/2 68/2/2 78/2/2
f 78/1/2 69/1/2 79/1/2
f 69/2/2 70/2/2 80/2/2
f 79/1/2 69/1/2 80/1/2
f 70/1/2 71/1/2 81/1/2
f 80/2/2 70/2/2 81/2/2
f 81/1/2 71/1/2 82/1/2
f 71/2/2 72/2/2 83/2/2
f 82/1/2 71/1/2 83/1/2
f 72/1/2 64/1/2 84/1/2
f 83/2/2 72/2/2 84/2/2
f 84/1/2 64/1/2 85/1/2
f 73/1/2 74/1/2 86/1/2
f 74/2/2 75/2/2 86/2/2
f 75/1/2 76/1/2 87/1/2
f 86/2/2 75/2/2 87/2/2
f 87/1/2 76/1/2 88/1/2
f 76/2/2 77/2/2 89/2/2
f 88/1/2 76/1/2 89/1/2
f 77/1/2 78/1/2 90/1/2
f 89/2/2 77/2/2 90/2/2
f 78/2/2 79/2/2 91/2/2
f 90/1/2 78/1/2 91/1/2
f 79/1/2 80/1/2 92/1/2
f 91/2/2 79/2/2 92/2/2
f 80/1/2 81/1/2 92/1/2
f 92/1/2 81/1/2 93/1/2
f 87/2/2 88/2/2 94/2/2
f 86/1/2 87/1/2 94/1/2
f 89/1/2 90/1/2 95/1/2
f 94/2/2 88/2/2 95/2/2
f 90/1/2 91/1/2 95/1/2
f 91/1/2 92/1/2 95/1/2
f 88/1/2 89/1/2 95/1/2
f 92/2/2 93/2/2 96/2/2
f 95/1/2 92/1/2 96/1/2
f 93/1/2 81/1/2 97/1/2
f 96/2/2 93/2/2 97/2/2
f 97/1/2 81/1/2 98/1/2
f 81/2/2 82/2/2 99/2/2
f 98/1/2 81/1/2 99/1/2
f 82/1/2 83/1/2 100/1/2
f 99/2/2 82/2/2 100/2/2
f 83/1/2 84/1/2 100/1/2
f 84/2/2 85/2/2 101/2/2
f 100/1/2 84/1/2 101/1/2
f 85/1/2 64/1/2 102/1/2
f 101/2/2 85/2/2 102/2/2
f 95/1/2 96/1/2 103/1/2
f 96/1/2 97/1/2 103/1/2
f 94/1/2 95/1/2 103/1/2
f 103/1/2 97/1/2 104/1/2
f 97/2/2 98/2/2 105/2/2
f 104/1/2 97/1/2 105/1/2
f 98/1/2 99/1/2 106/1/2
f 105/2/2 98/2/2 106/2/2
f 101/1/2 102/1/2 106/1/2
f 100/1/2 101/1/2 106/1/2
f 99/1/2 100/1/2 106/1/2
f 106/1/2 102/1/2 107/1/2
f 107/1/2 102/1/2 108/1/2
f 63/1/2 73/1/2 109/1/2
f 73/1/2 86/1/2 109/1/2
f 86/1/2 94/1/2 109/1/2
f 94/1/2 103/1/2 109/1/2
f 109/1/2 103/1/2 110/1/2
f 109/2/2 110/2/2 111/2/2
f 110/1/2 103/1/2 111/1/2
f 111/1/2 103/1/2 112/1/2
f 112/1/2 103/1/2 113/1/2
f 103/2/2 104/2/2 114/2/2
f 113/1/2 103/1/2 114/1/2
f 104/1/2 105/1/2 115/1/2
f 114/2/2 104/2/2 115/2/2
f 106/1/2 107/1/2 115/1/2
f 105/1/2 106/1/2 115/1/2
f 115/1/2 107/1/2 116/1/2
f 116/1/2 107/1/2 117/1/2
f 117/1/2 107/1/2 118/1/2
f 107/2/2 108/2/2 119/2/2
f 118/1/2 107/1/2 119/1/2
f 108/1/2 102/1/2 120/1/2
f 119/2/2 108/2/2 120/2/2
f 63/1/2 109/1/2 121/1/2
f 111/2/2 112/2/2 122/2/2
f 121/1/2 109/1/2 122/1/2
f 109/2/2 111/2/2 122/2/2
f 112/1/2 113/1/2 123/1/2
f 122/2/2 112/2/2 123/2/2
f 123/1/2 113/1/2 124/1/2
f 114/1/2 115/1/2 125/1/2
f 115/1/2 116/1/2 125/1/2
f 116/2/2 117/2/2 125/2/2
f 117/1/2 118/1/2 126/1/2
f 125/2/2 117/2/2 126/2/2
f 126/1/2 118/1/2 127/1/2
f 118/2/2 119/2/2 128/2/2
f 127/1/2 118/1/2 128/1/2
f 119/1/2 120/1/2 129/1/2
f 128/2/2 119/2/2 129/2/2
f 123/2/2 124/2/2 130/2/2
f 122/1/2 123/1/2 130/1/2
f 124/1/2 113/1/2 131/1/2
f 130/2/2 124/2/2 131/2/2
f 113/2/2 114/2/2 132/2/2
f 131/1/2 113/1/2 132/1/2
f 114/1/2 125/1/2 133/1/2
f 132/2/2 114/2/2 133/2/2
f 125/1/2 126/1/2 133/1/2
f 126/2/2 127/2/2 134/2/2
f 133/1/2 126/1/2 134/1/2
f 127/1/2 128/1/2 135/1/2
f 134/2/2 127/2/2 135/2/2
f 128/1/2 129/1/2 135/1/2
f 121/2/2 122/2/2 136/2/2
f 63/1/2 121/1/2 136/1/2
f 130/1/2 131/1/2 137/1/2
f 136/2/2 122/2/2 137/2/2
f 132/1/2 133/1/2 137/1/2
f 131/1/2 132/1/2 137/1/2
f 122/1/2 130/1/2 137/1/2
f 134/1/2 135/1/2 137/1/2
f 133/1/2 134/1/2 137/1/2
f 61/2/2 63/2/2 138/2/2
f 63/1/2 136/1/2 138/1/2
f 136/1/2 137/1/2 138/1/2
f 137/1/2 135/1/2 139/1/2
f 138/1/2 137/1/2 139/1/2
f 64/2/2 62/2/2 139/2/2
f 120/1/2 102/1/2 139/1/2
f 129/1/2 120/1/2 139/1/2
f 135/1/2 129/1/2 139/1/2
f 102/1/2 64/1/2 139/1/2
f 61/2/2 138/2/2 140/2/2
f 138/2/2 139/2/2 140/2/2
f 139/2/2 62/2/2 141/2/2
f 140/2/2 139/2/2 141/2/2
f 144/2/3 143/2/3 142/2/3
f 145/2/3 143/2/3 144/2/3
f 148/1/3 147/1/3 146/1/3
f 149/1/3 147/1/3 148/1/3
f 154/1/3 151/1/3 150/1/3
f 154/2/3 152/2/3 151/2/3
f 155/1/3 153/1/3 152/1/3
f 155/2/3 152/2/3 154/2/3
f 156/1/3 155/1/3 154/1/3
f 156/1/3 153/1/3 155/1/3
f 157/1/3 153/1/3 156/1/3
f 158/1/3 153/1/3 157/1/3
f 159/1/3 153/1/3 158/1/3
f 160/1/3 154/1/3 150/1/3
f 160/1/3 156/1/3 154/1/3
f 161/2/3 157/2/3 156/2/3
f 161/1/3 156/1/3 160/1/3
f 162/1/3 158/1/3 157/1/3
f 162/2/3 157/2/3 161/2/3
f 163/1/3 158/1/3 162/1/3
f 164/1/3 158/1/3 163/1/3
f 169/1/3 166/1/3 165/1/3
f 169/1/3 168/1/3 167/1/3
f 169/1/3 167/1/3 166/1/3
f 170/1/3 168/1/3 169/1/3
f 171/1/4 172/1/4 175/1/4
f 173/1/4 174/1/4 175/1/4
f 172/1/4 173/1/4 175/1/4
f 175/1/4 174/1/4 176/1/4
f 177/1/4 178/1/4 181/1/4
f 178/2/4 179/2/4 181/2/4
f 179/1/4 180/1/4 182/1/4
f 181/2/4 179/2/4 182/2/4
f 177/1/4 181/1/4 183/1/4
f 181/1/4 182/1/4 183/1/4
f 183/1/4 182/1/4 184/1/4
f 184/1/4 182/1/4 185/1/4
f 182/1/4 180/1/4 186/1/4
f 185/1/4 182/1/4 186/1/4
f 177/1/4 183/1/4 187/1/4
f 183/2/4 184/2/4 188/2/4
f 187/1/4 183/1/4 188/1/4
f 184/1/4 185/1/4 189/1/4
f 188/2/4 184/2/4 189/2/4
f 189/1/4 185/1/4 190/1/4
f 190/1/4 185/1/4 191/1/4
f 192/1/4 193/1/4 194/1/4
f 194/1/4 193/1/4 195/1/4
f 196/2/4 197/2/4 198/2/4
f 198/2/4 197/2/4 199/2/4
f 202/1/5 201/1/5 200/1/5
f 203/1/5 201/1/5 202/1/5
f 204/1/5 202/1/5 200/1/5
f 205/1/5 201/1/5 203/1/5
f 206/1/5 204/1/5 200/1/5
f 206/1/5 205/1/5 204/1/5
f 207/1/5 201/1/5 205/1/5
f 207/1/5 205/1/5 206/1/5
f 210/2/5 209/2/5 208/2/5
f 211/2/5 209/2/5 210/2/5
f 212/2/5 209/2/5 211/2/5
f 213/2/5 209/2/5 212/2/5
f 216/1/5 215/1/5 214/1/5
f 217/1/5 215/1/5 216/1/5
f 220/1/5 219/1/5 218/1/5
f 221/1/5 219/1/5 220/1/5
f 222/1/6 223/1/6 224/1/6
f 224/1/6 223/1/6 225/1/6
f 222/1/6 224/1/6 226/1/6
f 222/1/6 226/1/6 228/1/6
f 226/1/6 227/1/6 228/1/6
f 228/1/6 227/1/6 229/1/6
f 230/1/6 231/1/6 232/1/6
f 232/1/6 231/1/6 233/1/6
f 234/2/6 235/2/6 236/2/6
f 236/2/6 235/2/6 237/2/6
