# MagicaVoxel @ Ephtracy

# group
o 

# material
mtllib batata.mtl
usemtl palette

# normals
vn -1 0 0
vn 1 0 0
vn 0 0 1
vn 0 0 -1
vn 0 -1 0
vn 0 1 0

# texcoords
vt 0.185547 0.5
vt 0.369141 0.5
vt 0.896484 0.5

# verts
v 0 2 0
v 0 2 -4
v 0 2.1 0
v 0 2.1 -4
v 1.9 2.1 -1.6
v 1.9 2.1 -1.8
v 1.9 2.4 -1.6
v 1.9 2.4 -1.8
v 2 2.1 -1.3
v 2 2.1 -1.4
v 2 2.3 -1.3
v 2 2.3 -1.4
v 2 2.4 -1.6
v 2 2.4 -1.8
v 2 2.5 -1.6
v 2 2.5 -1.8
v 2.1 2.1 -1.2
v 2.1 2.1 -1.3
v 2.1 2.1 -1.4
v 2.1 2.1 -1.5
v 2.1 2.3 -1.2
v 2.1 2.3 -1.3
v 2.1 2.3 -1.4
v 2.1 2.3 -1.5
v 2.2 2.1 -1
v 2.2 2.1 -1.1
v 2.2 2.3 -1
v 2.2 2.3 -1.1
v 2.2 2.3 -1.2
v 2.2 2.3 -1.4
v 2.2 2.5 -1.1
v 2.2 2.5 -1.4
v 2.3 2.1 -0.9
v 2.3 2.1 -1
v 2.3 2.1 -1.1
v 2.3 2.1 -1.2
v 2.3 2.3 -0.9
v 2.3 2.3 -1
v 2.3 2.3 -1.1
v 2.3 2.3 -1.2
v 2.3 2.3 -1.4
v 2.3 2.3 -1.5
v 2.3 2.5 -1
v 2.3 2.5 -1.1
v 2.3 2.5 -1.4
v 2.3 2.5 -1.5
v 2.1 2.4 -1.6
v 2.1 2.4 -1.8
v 2.1 2.5 -1.6
v 2.1 2.5 -1.8
v 2.2 2.1 -1.6
v 2.2 2.1 -1.8
v 2.2 2.4 -1.6
v 2.2 2.4 -1.8
v 2.4 2.1 -1.2
v 2.4 2.1 -1.3
v 2.4 2.1 -1.4
v 2.4 2.1 -1.5
v 2.4 2.3 -1
v 2.4 2.3 -1.1
v 2.4 2.3 -1.2
v 2.4 2.3 -1.3
v 2.4 2.5 -1
v 2.4 2.5 -1.1
v 2.4 2.5 -1.4
v 2.4 2.5 -1.5
v 2.5 2.1 -1.3
v 2.5 2.1 -1.4
v 2.5 2.3 -1.1
v 2.5 2.3 -1.2
v 2.5 2.3 -1.3
v 2.5 2.5 -1.1
v 2.5 2.5 -1.4
v 2.6 2.1 -0.9
v 2.6 2.1 -1
v 2.6 2.1 -1.1
v 2.6 2.1 -1.2
v 2.6 2.3 -0.9
v 2.6 2.3 -1
v 2.6 2.3 -1.1
v 2.6 2.3 -1.2
v 2.7 2.1 -1
v 2.7 2.1 -1.1
v 2.7 2.3 -1
v 2.7 2.3 -1.1
v 4 2 0
v 4 2 -4
v 4 2.1 0
v 4 2.1 -4
v 0 2 0
v 0 2.1 0
v 4 2 0
v 4 2.1 0
v 2.3 2.1 -0.9
v 2.3 2.3 -0.9
v 2.6 2.1 -0.9
v 2.6 2.3 -0.9
v 2.2 2.1 -1
v 2.2 2.3 -1
v 2.3 2.1 -1
v 2.3 2.3 -1
v 2.3 2.5 -1
v 2.4 2.3 -1
v 2.4 2.5 -1
v 2.6 2.1 -1
v 2.6 2.3 -1
v 2.7 2.1 -1
v 2.7 2.3 -1
v 2.2 2.3 -1.1
v 2.2 2.5 -1.1
v 2.3 2.3 -1.1
v 2.3 2.5 -1.1
v 2.4 2.3 -1.1
v 2.4 2.5 -1.1
v 2.5 2.3 -1.1
v 2.5 2.5 -1.1
v 2.1 2.1 -1.2
v 2.1 2.3 -1.2
v 2.2 2.3 -1.2
v 2.3 2.1 -1.2
v 2.3 2.3 -1.2
v 2 2.1 -1.3
v 2 2.3 -1.3
v 2.1 2.1 -1.3
v 2.1 2.3 -1.3
v 2.4 2.1 -1.3
v 2.4 2.3 -1.3
v 2.5 2.1 -1.3
v 2.5 2.3 -1.3
v 1.9 2.1 -1.6
v 1.9 2.4 -1.6
v 2 2.4 -1.6
v 2 2.5 -1.6
v 2.1 2.4 -1.6
v 2.1 2.5 -1.6
v 2.2 2.1 -1.6
v 2.2 2.4 -1.6
v 2.2 2.1 -1.1
v 2.2 2.3 -1.1
v 2.3 2.1 -1.1
v 2.3 2.3 -1.1
v 2.6 2.1 -1.1
v 2.6 2.3 -1.1
v 2.7 2.1 -1.1
v 2.7 2.3 -1.1
v 2.4 2.1 -1.2
v 2.4 2.3 -1.2
v 2.5 2.3 -1.2
v 2.6 2.1 -1.2
v 2.6 2.3 -1.2
v 2 2.1 -1.4
v 2 2.3 -1.4
v 2.1 2.1 -1.4
v 2.1 2.3 -1.4
v 2.2 2.3 -1.4
v 2.2 2.5 -1.4
v 2.3 2.3 -1.4
v 2.3 2.5 -1.4
v 2.4 2.1 -1.4
v 2.4 2.5 -1.4
v 2.5 2.1 -1.4
v 2.5 2.5 -1.4
v 2.1 2.1 -1.5
v 2.1 2.3 -1.5
v 2.3 2.3 -1.5
v 2.3 2.5 -1.5
v 2.4 2.1 -1.5
v 2.4 2.5 -1.5
v 1.9 2.1 -1.8
v 1.9 2.4 -1.8
v 2 2.4 -1.8
v 2 2.5 -1.8
v 2.1 2.4 -1.8
v 2.1 2.5 -1.8
v 2.2 2.1 -1.8
v 2.2 2.4 -1.8
v 0 2 -4
v 0 2.1 -4
v 4 2 -4
v 4 2.1 -4
v 0 2 0
v 4 2 0
v 2.6 2 -0.5
v 2.7 2 -0.5
v 2.3 2 -0.6
v 2.4 2 -0.6
v 2.6 2 -0.6
v 2.7 2 -0.6
v 2.8 2 -0.6
v 2.9 2 -0.6
v 2.1 2 -0.7
v 2.2 2 -0.7
v 2.3 2 -0.7
v 2.4 2 -0.7
v 2.8 2 -0.7
v 2.9 2 -0.7
v 2.1 2 -0.8
v 2.2 2 -0.8
v 2.3 2 -0.8
v 2.7 2 -0.8
v 1.7 2 -0.9
v 2 2 -0.9
v 2.2 2 -0.9
v 2.3 2 -0.9
v 2.6 2 -0.9
v 2.7 2 -0.9
v 2.8 2 -0.9
v 1.7 2 -1
v 2 2 -1
v 2.1 2 -1
v 2.2 2 -1
v 2.3 2 -1
v 2.6 2 -1
v 2.7 2 -1
v 2.8 2 -1
v 2.9 2 -1
v 2 2 -1.1
v 2.1 2 -1.1
v 2.2 2 -1.1
v 2.3 2 -1.1
v 2.6 2 -1.1
v 2.7 2 -1.1
v 2.8 2 -1.1
v 2.9 2 -1.1
v 3 2 -1.1
v 3.1 2 -1.1
v 1.5 2 -1.2
v 1.6 2 -1.2
v 1.9 2 -1.2
v 2 2 -1.2
v 2.1 2 -1.2
v 2.3 2 -1.2
v 2.4 2 -1.2
v 2.6 2 -1.2
v 2.9 2 -1.2
v 3 2 -1.2
v 3.1 2 -1.2
v 1.5 2 -1.3
v 1.6 2 -1.3
v 1.8 2 -1.3
v 1.9 2 -1.3
v 2.4 2 -1.3
v 2.5 2 -1.3
v 2.7 2 -1.3
v 2.8 2 -1.3
v 2.9 2 -1.3
v 1.4 2 -1.4
v 1.5 2 -1.4
v 1.6 2 -1.4
v 1.7 2 -1.4
v 2.4 2 -1.4
v 2.5 2 -1.4
v 2.7 2 -1.4
v 2.8 2 -1.4
v 3 2 -1.4
v 1.4 2 -1.5
v 1.5 2 -1.5
v 1.6 2 -1.5
v 1.7 2 -1.5
v 2.1 2 -1.5
v 2.4 2 -1.5
v 2.7 2 -1.5
v 2.8 2 -1.5
v 1.9 2 -1.6
v 2.2 2 -1.6
v 2.3 2 -1.6
v 2.5 2 -1.6
v 2.7 2 -1.6
v 2.8 2 -1.6
v 1.7 2 -1.7
v 1.8 2 -1.7
v 1.4 2 -1.8
v 1.5 2 -1.8
v 1.6 2 -1.8
v 1.7 2 -1.8
v 1.8 2 -1.8
v 1.9 2 -1.8
v 2.2 2 -1.8
v 2.5 2 -1.8
v 2.6 2 -1.8
v 1.4 2 -1.9
v 1.5 2 -1.9
v 1.6 2 -1.9
v 1.7 2 -1.9
v 1.8 2 -1.9
v 2.2 2 -1.9
v 2.5 2 -1.9
v 2.6 2 -1.9
v 1.9 2 -2
v 2 2 -2
v 2.2 2 -2
v 2.3 2 -2
v 1.9 2 -2.1
v 2 2 -2.1
v 2.4 2 -2.2
v 2.6 2 -2.2
v 2.4 2 -2.3
v 2.5 2 -2.3
v 2.5 2 -2.4
v 2.6 2 -2.4
v 0 2 -4
v 4 2 -4
v 2.2 2.3 -1.1
v 2.3 2.3 -1.1
v 2.2 2.3 -1.2
v 2.3 2.3 -1.2
v 2.4 2.3 -1.2
v 2.5 2.3 -1.2
v 2.4 2.3 -1.3
v 2.5 2.3 -1.3
v 0 2.1 0
v 4 2.1 0
v 2.6 2.1 -0.5
v 2.7 2.1 -0.5
v 2.3 2.1 -0.6
v 2.4 2.1 -0.6
v 2.6 2.1 -0.6
v 2.7 2.1 -0.6
v 2.8 2.1 -0.6
v 2.9 2.1 -0.6
v 2.1 2.1 -0.7
v 2.2 2.1 -0.7
v 2.3 2.1 -0.7
v 2.4 2.1 -0.7
v 2.8 2.1 -0.7
v 2.9 2.1 -0.7
v 2.1 2.1 -0.8
v 2.2 2.1 -0.8
v 2.3 2.1 -0.8
v 2.7 2.1 -0.8
v 1.7 2.1 -0.9
v 2 2.1 -0.9
v 2.2 2.1 -0.9
v 2.3 2.1 -0.9
v 2.6 2.1 -0.9
v 2.7 2.1 -0.9
v 2.8 2.1 -0.9
v 1.7 2.1 -1
v 2 2.1 -1
v 2.1 2.1 -1
v 2.2 2.1 -1
v 2.3 2.1 -1
v 2.6 2.1 -1
v 2.7 2.1 -1
v 2.8 2.1 -1
v 2.9 2.1 -1
v 2 2.1 -1.1
v 2.1 2.1 -1.1
v 2.2 2.1 -1.1
v 2.3 2.1 -1.1
v 2.6 2.1 -1.1
v 2.7 2.1 -1.1
v 2.8 2.1 -1.1
v 2.9 2.1 -1.1
v 3 2.1 -1.1
v 3.1 2.1 -1.1
v 1.5 2.1 -1.2
v 1.6 2.1 -1.2
v 1.9 2.1 -1.2
v 2 2.1 -1.2
v 2.1 2.1 -1.2
v 2.3 2.1 -1.2
v 2.4 2.1 -1.2
v 2.6 2.1 -1.2
v 2.9 2.1 -1.2
v 3 2.1 -1.2
v 3.1 2.1 -1.2
v 1.5 2.1 -1.3
v 1.6 2.1 -1.3
v 1.8 2.1 -1.3
v 1.9 2.1 -1.3
v 2 2.1 -1.3
v 2.1 2.1 -1.3
v 2.4 2.1 -1.3
v 2.5 2.1 -1.3
v 2.7 2.1 -1.3
v 2.8 2.1 -1.3
v 2.9 2.1 -1.3
v 1.4 2.1 -1.4
v 1.5 2.1 -1.4
v 1.6 2.1 -1.4
v 1.7 2.1 -1.4
v 2 2.1 -1.4
v 2.1 2.1 -1.4
v 2.4 2.1 -1.4
v 2.5 2.1 -1.4
v 2.7 2.1 -1.4
v 2.8 2.1 -1.4
v 3 2.1 -1.4
v 1.4 2.1 -1.5
v 1.5 2.1 -1.5
v 1.6 2.1 -1.5
v 1.7 2.1 -1.5
v 2.1 2.1 -1.5
v 2.4 2.1 -1.5
v 2.7 2.1 -1.5
v 2.8 2.1 -1.5
v 1.9 2.1 -1.6
v 2.2 2.1 -1.6
v 2.3 2.1 -1.6
v 2.5 2.1 -1.6
v 2.7 2.1 -1.6
v 2.8 2.1 -1.6
v 1.7 2.1 -1.7
v 1.8 2.1 -1.7
v 1.4 2.1 -1.8
v 1.5 2.1 -1.8
v 1.6 2.1 -1.8
v 1.7 2.1 -1.8
v 1.8 2.1 -1.8
v 1.9 2.1 -1.8
v 2.2 2.1 -1.8
v 2.5 2.1 -1.8
v 2.6 2.1 -1.8
v 1.4 2.1 -1.9
v 1.5 2.1 -1.9
v 1.6 2.1 -1.9
v 1.7 2.1 -1.9
v 1.8 2.1 -1.9
v 2.2 2.1 -1.9
v 2.5 2.1 -1.9
v 2.6 2.1 -1.9
v 1.9 2.1 -2
v 2 2.1 -2
v 2.2 2.1 -2
v 2.3 2.1 -2
v 1.9 2.1 -2.1
v 2 2.1 -2.1
v 2.4 2.1 -2.2
v 2.6 2.1 -2.2
v 2.4 2.1 -2.3
v 2.5 2.1 -2.3
v 2.5 2.1 -2.4
v 2.6 2.1 -2.4
v 0 2.1 -4
v 4 2.1 -4
v 2.3 2.3 -0.9
v 2.6 2.3 -0.9
v 2.2 2.3 -1
v 2.3 2.3 -1
v 2.4 2.3 -1
v 2.6 2.3 -1
v 2.7 2.3 -1
v 2.2 2.3 -1.1
v 2.3 2.3 -1.1
v 2.4 2.3 -1.1
v 2.5 2.3 -1.1
v 2.6 2.3 -1.1
v 2.7 2.3 -1.1
v 2.1 2.3 -1.2
v 2.2 2.3 -1.2
v 2.5 2.3 -1.2
v 2.6 2.3 -1.2
v 2 2.3 -1.3
v 2.1 2.3 -1.3
v 2 2.3 -1.4
v 2.1 2.3 -1.4
v 2.2 2.3 -1.4
v 2.3 2.3 -1.4
v 2.1 2.3 -1.5
v 2.3 2.3 -1.5
v 1.9 2.4 -1.6
v 2 2.4 -1.6
v 2.1 2.4 -1.6
v 2.2 2.4 -1.6
v 1.9 2.4 -1.8
v 2 2.4 -1.8
v 2.1 2.4 -1.8
v 2.2 2.4 -1.8
v 2.3 2.5 -1
v 2.4 2.5 -1
v 2.2 2.5 -1.1
v 2.3 2.5 -1.1
v 2.4 2.5 -1.1
v 2.5 2.5 -1.1
v 2.2 2.5 -1.4
v 2.3 2.5 -1.4
v 2.4 2.5 -1.4
v 2.5 2.5 -1.4
v 2.3 2.5 -1.5
v 2.4 2.5 -1.5
v 2 2.5 -1.6
v 2.1 2.5 -1.6
v 2 2.5 -1.8
v 2.1 2.5 -1.8

# faces
f 3/3/1 2/3/1 1/3/1
f 4/3/1 2/3/1 3/3/1
f 7/1/1 6/1/1 5/1/1
f 8/1/1 6/1/1 7/1/1
f 11/1/1 10/1/1 9/1/1
f 12/1/1 10/1/1 11/1/1
f 15/1/1 14/1/1 13/1/1
f 16/1/1 14/1/1 15/1/1
f 21/1/1 18/1/1 17/1/1
f 22/1/1 18/1/1 21/1/1
f 23/1/1 20/1/1 19/1/1
f 24/1/1 20/1/1 23/1/1
f 27/1/1 26/1/1 25/1/1
f 28/1/1 26/1/1 27/1/1
f 31/1/1 30/1/1 29/1/1
f 31/1/1 29/1/1 28/1/1
f 32/1/1 30/1/1 31/1/1
f 37/1/1 34/1/1 33/1/1
f 38/1/1 34/1/1 37/1/1
f 39/1/1 36/1/1 35/1/1
f 40/1/1 36/1/1 39/1/1
f 43/1/1 39/1/1 38/1/1
f 44/1/1 39/1/1 43/1/1
f 45/1/1 42/1/1 41/1/1
f 46/1/1 42/1/1 45/1/1
f 47/1/2 48/1/2 49/1/2
f 49/1/2 48/1/2 50/1/2
f 51/1/2 52/1/2 53/1/2
f 53/1/2 52/1/2 54/1/2
f 55/1/2 56/1/2 61/1/2
f 61/1/2 56/1/2 62/1/2
f 59/1/2 60/1/2 63/1/2
f 63/1/2 60/1/2 64/1/2
f 57/1/2 58/1/2 65/1/2
f 65/1/2 58/1/2 66/1/2
f 67/1/2 68/1/2 71/1/2
f 69/1/2 70/1/2 72/1/2
f 70/1/2 71/1/2 72/1/2
f 71/1/2 68/1/2 73/1/2
f 72/1/2 71/1/2 73/1/2
f 74/1/2 75/1/2 78/1/2
f 78/1/2 75/1/2 79/1/2
f 76/1/2 77/1/2 80/1/2
f 80/1/2 77/1/2 81/1/2
f 82/1/2 83/1/2 84/1/2
f 84/1/2 83/1/2 85/1/2
f 86/3/2 87/3/2 88/3/2
f 88/3/2 87/3/2 89/3/2
f 92/3/3 91/3/3 90/3/3
f 93/3/3 91/3/3 92/3/3
f 96/1/3 95/1/3 94/1/3
f 97/1/3 95/1/3 96/1/3
f 100/1/3 99/1/3 98/1/3
f 101/1/3 99/1/3 100/1/3
f 103/1/3 102/1/3 101/1/3
f 104/1/3 102/1/3 103/1/3
f 107/1/3 106/1/3 105/1/3
f 108/1/3 106/1/3 107/1/3
f 111/1/3 110/1/3 109/1/3
f 112/1/3 110/1/3 111/1/3
f 115/1/3 114/1/3 113/1/3
f 116/1/3 114/1/3 115/1/3
f 119/1/3 118/1/3 117/1/3
f 120/1/3 119/1/3 117/1/3
f 121/1/3 119/1/3 120/1/3
f 124/1/3 123/1/3 122/1/3
f 125/1/3 123/1/3 124/1/3
f 128/1/3 127/1/3 126/1/3
f 129/1/3 127/1/3 128/1/3
f 132/1/3 131/1/3 130/1/3
f 134/1/3 132/1/3 130/1/3
f 134/1/3 133/1/3 132/1/3
f 135/1/3 133/1/3 134/1/3
f 136/1/3 134/1/3 130/1/3
f 137/1/3 134/1/3 136/1/3
f 138/1/4 139/1/4 140/1/4
f 140/1/4 139/1/4 141/1/4
f 142/1/4 143/1/4 144/1/4
f 144/1/4 143/1/4 145/1/4
f 146/1/4 147/1/4 148/1/4
f 146/1/4 148/1/4 149/1/4
f 149/1/4 148/1/4 150/1/4
f 151/1/4 152/1/4 153/1/4
f 153/1/4 152/1/4 154/1/4
f 155/1/4 156/1/4 157/1/4
f 157/1/4 156/1/4 158/1/4
f 159/1/4 160/1/4 161/1/4
f 161/1/4 160/1/4 162/1/4
f 163/1/4 164/1/4 165/1/4
f 163/1/4 165/1/4 167/1/4
f 165/1/4 166/1/4 167/1/4
f 167/1/4 166/1/4 168/1/4
f 169/1/4 170/1/4 171/1/4
f 169/1/4 171/1/4 173/1/4
f 171/1/4 172/1/4 173/1/4
f 173/1/4 172/1/4 174/1/4
f 169/1/4 173/1/4 175/1/4
f 175/1/4 173/1/4 176/1/4
f 177/3/4 178/3/4 179/3/4
f 179/3/4 178/3/4 180/3/4
f 183/3/5 182/3/5 181/3/5
f 184/3/5 182/3/5 183/3/5
f 185/3/5 183/3/5 181/3/5
f 186/3/5 183/3/5 185/3/5
f 187/2/5 184/2/5 183/2/5
f 187/3/5 183/3/5 186/3/5
f 188/3/5 182/3/5 184/3/5
f 188/2/5 184/2/5 187/2/5
f 189/3/5 182/3/5 188/3/5
f 190/3/5 182/3/5 189/3/5
f 191/3/5 185/3/5 181/3/5
f 192/3/5 185/3/5 191/3/5
f 193/2/5 186/2/5 185/2/5
f 193/3/5 185/3/5 192/3/5
f 194/3/5 187/3/5 186/3/5
f 194/2/5 186/2/5 193/2/5
f 194/3/5 188/3/5 187/3/5
f 194/3/5 189/3/5 188/3/5
f 195/2/5 190/2/5 189/2/5
f 195/3/5 189/3/5 194/3/5
f 196/3/5 182/3/5 190/3/5
f 196/2/5 190/2/5 195/2/5
f 197/2/5 192/2/5 191/2/5
f 197/3/5 191/3/5 181/3/5
f 198/3/5 193/3/5 192/3/5
f 198/2/5 192/2/5 197/2/5
f 198/3/5 195/3/5 194/3/5
f 198/3/5 194/3/5 193/3/5
f 198/3/5 196/3/5 195/3/5
f 199/3/5 196/3/5 198/3/5
f 200/3/5 196/3/5 199/3/5
f 201/3/5 197/3/5 181/3/5
f 201/3/5 198/3/5 197/3/5
f 201/3/5 199/3/5 198/3/5
f 202/3/5 199/3/5 201/3/5
f 203/3/5 199/3/5 202/3/5
f 204/2/5 200/2/5 199/2/5
f 204/3/5 199/3/5 203/3/5
f 205/2/5 200/2/5 204/2/5
f 206/3/5 196/3/5 200/3/5
f 206/2/5 200/2/5 205/2/5
f 207/3/5 196/3/5 206/3/5
f 208/3/5 201/3/5 181/3/5
f 208/2/5 202/2/5 201/2/5
f 209/3/5 203/3/5 202/3/5
f 209/2/5 202/2/5 208/2/5
f 210/3/5 203/3/5 209/3/5
f 211/2/5 204/2/5 203/2/5
f 211/3/5 203/3/5 210/3/5
f 212/3/5 205/3/5 204/3/5
f 212/2/5 204/2/5 211/2/5
f 213/2/5 207/2/5 206/2/5
f 213/3/5 205/3/5 212/3/5
f 213/2/5 206/2/5 205/2/5
f 214/2/5 207/2/5 213/2/5
f 215/3/5 196/3/5 207/3/5
f 215/2/5 207/2/5 214/2/5
f 216/3/5 182/3/5 196/3/5
f 216/3/5 196/3/5 215/3/5
f 217/3/5 210/3/5 209/3/5
f 217/3/5 209/3/5 208/3/5
f 218/2/5 211/2/5 210/2/5
f 218/3/5 210/3/5 217/3/5
f 219/3/5 214/3/5 213/3/5
f 219/2/5 211/2/5 218/2/5
f 219/3/5 212/3/5 211/3/5
f 219/3/5 213/3/5 212/3/5
f 220/3/5 214/3/5 219/3/5
f 221/3/5 214/3/5 220/3/5
f 222/2/5 215/2/5 214/2/5
f 222/3/5 214/3/5 221/3/5
f 222/2/5 216/2/5 215/2/5
f 223/2/5 216/2/5 222/2/5
f 224/3/5 182/3/5 216/3/5
f 224/2/5 216/2/5 223/2/5
f 225/3/5 182/3/5 224/3/5
f 226/3/5 182/3/5 225/3/5
f 227/3/5 217/3/5 208/3/5
f 227/3/5 208/3/5 181/3/5
f 228/3/5 217/3/5 227/3/5
f 229/3/5 217/3/5 228/3/5
f 230/2/5 218/2/5 217/2/5
f 230/3/5 217/3/5 229/3/5
f 230/2/5 220/2/5 219/2/5
f 230/2/5 219/2/5 218/2/5
f 231/2/5 220/2/5 230/2/5
f 232/3/5 221/3/5 220/3/5
f 232/2/5 220/2/5 231/2/5
f 233/3/5 221/3/5 232/3/5
f 234/2/5 223/2/5 222/2/5
f 234/3/5 221/3/5 233/3/5
f 234/2/5 222/2/5 221/2/5
f 235/3/5 224/3/5 223/3/5
f 235/3/5 225/3/5 224/3/5
f 236/2/5 226/2/5 225/2/5
f 236/3/5 225/3/5 235/3/5
f 237/3/5 182/3/5 226/3/5
f 237/2/5 226/2/5 236/2/5
f 238/2/5 228/2/5 227/2/5
f 238/3/5 227/3/5 181/3/5
f 239/3/5 229/3/5 228/3/5
f 239/2/5 228/2/5 238/2/5
f 240/3/5 229/3/5 239/3/5
f 241/2/5 231/2/5 230/2/5
f 241/3/5 229/3/5 240/3/5
f 241/2/5 230/2/5 229/2/5
f 242/3/5 233/3/5 232/3/5
f 242/3/5 232/3/5 231/3/5
f 242/2/5 234/2/5 233/2/5
f 243/2/5 234/2/5 242/2/5
f 244/2/5 223/2/5 234/2/5
f 244/2/5 234/2/5 243/2/5
f 245/3/5 235/3/5 223/3/5
f 245/2/5 223/2/5 244/2/5
f 246/2/5 236/2/5 235/2/5
f 246/3/5 235/3/5 245/3/5
f 247/3/5 240/3/5 239/3/5
f 247/3/5 238/3/5 181/3/5
f 247/3/5 239/3/5 238/3/5
f 248/3/5 240/3/5 247/3/5
f 249/3/5 240/3/5 248/3/5
f 250/3/5 240/3/5 249/3/5
f 251/3/5 243/3/5 242/3/5
f 251/3/5 242/3/5 231/3/5
f 252/2/5 244/2/5 243/2/5
f 252/3/5 243/3/5 251/3/5
f 253/3/5 245/3/5 244/3/5
f 253/2/5 244/2/5 252/2/5
f 254/2/5 246/2/5 245/2/5
f 254/3/5 245/3/5 253/3/5
f 255/2/5 236/2/5 246/2/5
f 255/2/5 246/2/5 254/2/5
f 255/3/5 237/3/5 236/3/5
f 256/3/5 247/3/5 181/3/5
f 256/2/5 248/2/5 247/2/5
f 257/3/5 249/3/5 248/3/5
f 257/2/5 248/2/5 256/2/5
f 258/2/5 250/2/5 249/2/5
f 258/3/5 249/3/5 257/3/5
f 259/3/5 240/3/5 250/3/5
f 259/2/5 250/2/5 258/2/5
f 260/3/5 251/3/5 231/3/5
f 260/2/5 231/2/5 241/2/5
f 260/2/5 241/2/5 240/2/5
f 261/2/5 252/2/5 251/2/5
f 261/3/5 251/3/5 260/3/5
f 262/3/5 254/3/5 253/3/5
f 262/3/5 253/3/5 252/3/5
f 262/3/5 255/3/5 254/3/5
f 263/3/5 255/3/5 262/3/5
f 264/2/5 260/2/5 240/2/5
f 264/2/5 261/2/5 260/2/5
f 265/2/5 261/2/5 264/2/5
f 266/2/5 261/2/5 265/2/5
f 267/2/5 252/2/5 261/2/5
f 267/2/5 261/2/5 266/2/5
f 267/3/5 262/3/5 252/3/5
f 268/2/5 263/2/5 262/2/5
f 268/3/5 262/3/5 267/3/5
f 269/3/5 255/3/5 263/3/5
f 269/2/5 263/2/5 268/2/5
f 270/3/5 240/3/5 259/3/5
f 270/3/5 259/3/5 258/3/5
f 270/3/5 258/3/5 257/3/5
f 270/3/5 257/3/5 256/3/5
f 271/2/5 264/2/5 240/2/5
f 271/3/5 240/3/5 270/3/5
f 272/3/5 256/3/5 181/3/5
f 272/3/5 270/3/5 256/3/5
f 273/3/5 270/3/5 272/3/5
f 274/3/5 270/3/5 273/3/5
f 275/2/5 271/2/5 270/2/5
f 275/3/5 270/3/5 274/3/5
f 276/2/5 264/2/5 271/2/5
f 276/2/5 271/2/5 275/2/5
f 277/3/5 265/3/5 264/3/5
f 277/2/5 264/2/5 276/2/5
f 278/2/5 266/2/5 265/2/5
f 278/3/5 265/3/5 277/3/5
f 279/3/5 268/3/5 267/3/5
f 279/3/5 267/3/5 266/3/5
f 279/3/5 269/3/5 268/3/5
f 280/3/5 269/3/5 279/3/5
f 281/2/5 273/2/5 272/2/5
f 281/3/5 272/3/5 181/3/5
f 282/3/5 274/3/5 273/3/5
f 282/2/5 273/2/5 281/2/5
f 283/2/5 275/2/5 274/2/5
f 283/3/5 274/3/5 282/3/5
f 284/3/5 276/3/5 275/3/5
f 284/2/5 275/2/5 283/2/5
f 285/2/5 277/2/5 276/2/5
f 285/3/5 276/3/5 284/3/5
f 285/2/5 278/2/5 277/2/5
f 286/2/5 266/2/5 278/2/5
f 286/2/5 278/2/5 285/2/5
f 287/3/5 279/3/5 266/3/5
f 287/2/5 280/2/5 279/2/5
f 288/3/5 269/3/5 280/3/5
f 288/2/5 280/2/5 287/2/5
f 289/3/5 285/3/5 284/3/5
f 289/3/5 284/3/5 283/3/5
f 289/3/5 282/3/5 281/3/5
f 289/3/5 286/3/5 285/3/5
f 289/3/5 283/3/5 282/3/5
f 290/3/5 286/3/5 289/3/5
f 291/2/5 266/2/5 286/2/5
f 291/3/5 286/3/5 290/3/5
f 292/3/5 288/3/5 287/3/5
f 292/2/5 266/2/5 291/2/5
f 292/3/5 287/3/5 266/3/5
f 293/2/5 290/2/5 289/2/5
f 293/3/5 289/3/5 281/3/5
f 294/3/5 291/3/5 290/3/5
f 294/2/5 290/2/5 293/2/5
f 294/3/5 292/3/5 291/3/5
f 295/3/5 288/3/5 292/3/5
f 295/3/5 292/3/5 294/3/5
f 295/3/5 294/3/5 293/3/5
f 296/3/5 269/3/5 288/3/5
f 296/3/5 288/3/5 295/3/5
f 297/3/5 295/3/5 293/3/5
f 297/2/5 296/2/5 295/2/5
f 298/2/5 296/2/5 297/2/5
f 299/3/5 298/3/5 297/3/5
f 299/2/5 296/2/5 298/2/5
f 300/3/5 269/3/5 296/3/5
f 300/2/5 296/2/5 299/2/5
f 301/3/5 299/3/5 297/3/5
f 301/3/5 293/3/5 281/3/5
f 301/3/5 300/3/5 299/3/5
f 301/3/5 297/3/5 293/3/5
f 301/3/5 281/3/5 181/3/5
f 302/3/5 269/3/5 300/3/5
f 302/3/5 300/3/5 301/3/5
f 302/3/5 237/3/5 255/3/5
f 302/3/5 182/3/5 237/3/5
f 302/3/5 255/3/5 269/3/5
f 305/1/5 304/1/5 303/1/5
f 306/1/5 304/1/5 305/1/5
f 309/1/5 308/1/5 307/1/5
f 310/1/5 308/1/5 309/1/5
f 311/3/6 312/3/6 313/3/6
f 313/3/6 312/3/6 314/3/6
f 311/3/6 313/3/6 315/3/6
f 315/3/6 313/3/6 316/3/6
f 313/2/6 314/2/6 317/2/6
f 316/3/6 313/3/6 317/3/6
f 314/3/6 312/3/6 318/3/6
f 317/2/6 314/2/6 318/2/6
f 318/3/6 312/3/6 319/3/6
f 319/3/6 312/3/6 320/3/6
f 311/3/6 315/3/6 321/3/6
f 321/3/6 315/3/6 322/3/6
f 315/2/6 316/2/6 323/2/6
f 322/3/6 315/3/6 323/3/6
f 316/3/6 317/3/6 324/3/6
f 323/2/6 316/2/6 324/2/6
f 317/3/6 318/3/6 324/3/6
f 318/3/6 319/3/6 324/3/6
f 319/2/6 320/2/6 325/2/6
f 324/3/6 319/3/6 325/3/6
f 320/3/6 312/3/6 326/3/6
f 325/2/6 320/2/6 326/2/6
f 321/2/6 322/2/6 327/2/6
f 311/3/6 321/3/6 327/3/6
f 322/3/6 323/3/6 328/3/6
f 327/2/6 322/2/6 328/2/6
f 324/3/6 325/3/6 328/3/6
f 323/3/6 324/3/6 328/3/6
f 325/3/6 326/3/6 328/3/6
f 328/3/6 326/3/6 329/3/6
f 329/3/6 326/3/6 330/3/6
f 311/3/6 327/3/6 331/3/6
f 327/3/6 328/3/6 331/3/6
f 328/3/6 329/3/6 331/3/6
f 331/3/6 329/3/6 332/3/6
f 332/3/6 329/3/6 333/3/6
f 329/2/6 330/2/6 334/2/6
f 333/3/6 329/3/6 334/3/6
f 334/2/6 330/2/6 335/2/6
f 330/3/6 326/3/6 336/3/6
f 335/2/6 330/2/6 336/2/6
f 336/3/6 326/3/6 337/3/6
f 311/3/6 331/3/6 338/3/6
f 331/2/6 332/2/6 338/2/6
f 332/3/6 333/3/6 339/3/6
f 338/2/6 332/2/6 339/2/6
f 339/3/6 333/3/6 340/3/6
f 333/2/6 334/2/6 341/2/6
f 340/3/6 333/3/6 341/3/6
f 341/2/6 334/2/6 342/2/6
f 336/2/6 337/2/6 343/2/6
f 335/2/6 336/2/6 343/2/6
f 343/2/6 337/2/6 344/2/6
f 337/3/6 326/3/6 345/3/6
f 344/2/6 337/2/6 345/2/6
f 326/3/6 312/3/6 346/3/6
f 345/3/6 326/3/6 346/3/6
f 339/3/6 340/3/6 347/3/6
f 338/3/6 339/3/6 347/3/6
f 340/2/6 341/2/6 348/2/6
f 347/3/6 340/3/6 348/3/6
f 348/2/6 341/2/6 349/2/6
f 344/2/6 345/2/6 352/2/6
f 345/2/6 346/2/6 352/2/6
f 352/2/6 346/2/6 353/2/6
f 346/3/6 312/3/6 354/3/6
f 353/2/6 346/2/6 354/2/6
f 354/3/6 312/3/6 355/3/6
f 355/3/6 312/3/6 356/3/6
f 311/3/6 338/3/6 357/3/6
f 338/3/6 347/3/6 357/3/6
f 357/3/6 347/3/6 358/3/6
f 358/3/6 347/3/6 359/3/6
f 349/2/6 350/2/6 360/2/6
f 359/3/6 347/3/6 360/3/6
f 348/2/6 349/2/6 360/2/6
f 347/2/6 348/2/6 360/2/6
f 360/2/6 350/2/6 361/2/6
f 361/2/6 350/2/6 362/2/6
f 352/2/6 353/2/6 364/2/6
f 351/2/6 352/2/6 364/2/6
f 353/3/6 354/3/6 365/3/6
f 354/3/6 355/3/6 365/3/6
f 355/2/6 356/2/6 366/2/6
f 365/3/6 355/3/6 366/3/6
f 356/3/6 312/3/6 367/3/6
f 366/2/6 356/2/6 367/2/6
f 357/2/6 358/2/6 368/2/6
f 311/3/6 357/3/6 368/3/6
f 358/3/6 359/3/6 369/3/6
f 368/2/6 358/2/6 369/2/6
f 369/3/6 359/3/6 370/3/6
f 360/2/6 361/2/6 371/2/6
f 370/3/6 359/3/6 371/3/6
f 359/2/6 360/2/6 371/2/6
f 371/2/6 361/2/6 372/2/6
f 372/2/6 361/2/6 373/2/6
f 363/2/6 364/2/6 374/2/6
f 374/2/6 364/2/6 375/2/6
f 364/2/6 353/2/6 376/2/6
f 375/2/6 364/2/6 376/2/6
f 353/3/6 365/3/6 377/3/6
f 376/2/6 353/2/6 377/2/6
f 365/2/6 366/2/6 378/2/6
f 377/3/6 365/3/6 378/3/6
f 311/3/6 368/3/6 379/3/6
f 369/3/6 370/3/6 379/3/6
f 368/3/6 369/3/6 379/3/6
f 379/3/6 370/3/6 380/3/6
f 380/3/6 370/3/6 381/3/6
f 381/3/6 370/3/6 382/3/6
f 371/2/6 372/2/6 383/2/6
f 370/2/6 371/2/6 383/2/6
f 375/2/6 376/2/6 386/2/6
f 376/3/6 377/3/6 387/3/6
f 386/2/6 376/2/6 387/2/6
f 377/2/6 378/2/6 388/2/6
f 387/3/6 377/3/6 388/3/6
f 378/2/6 366/2/6 389/2/6
f 388/2/6 378/2/6 389/2/6
f 366/3/6 367/3/6 389/3/6
f 311/3/6 379/3/6 390/3/6
f 379/2/6 380/2/6 390/2/6
f 380/3/6 381/3/6 391/3/6
f 390/2/6 380/2/6 391/2/6
f 381/2/6 382/2/6 392/2/6
f 391/3/6 381/3/6 392/3/6
f 382/3/6 370/3/6 393/3/6
f 392/2/6 382/2/6 393/2/6
f 383/2/6 384/2/6 394/2/6
f 385/2/6 386/2/6 395/2/6
f 387/3/6 388/3/6 396/3/6
f 386/3/6 387/3/6 396/3/6
f 388/3/6 389/3/6 396/3/6
f 396/3/6 389/3/6 397/3/6
f 394/2/6 395/2/6 398/2/6
f 383/2/6 394/2/6 398/2/6
f 370/2/6 383/2/6 398/2/6
f 398/2/6 395/2/6 399/2/6
f 399/2/6 395/2/6 400/2/6
f 395/2/6 386/2/6 401/2/6
f 400/2/6 395/2/6 401/2/6
f 386/3/6 396/3/6 401/3/6
f 396/2/6 397/2/6 402/2/6
f 401/3/6 396/3/6 402/3/6
f 397/3/6 389/3/6 403/3/6
f 402/2/6 397/2/6 403/2/6
f 393/3/6 370/3/6 404/3/6
f 391/3/6 392/3/6 404/3/6
f 390/3/6 391/3/6 404/3/6
f 392/3/6 393/3/6 404/3/6
f 370/2/6 398/2/6 405/2/6
f 404/3/6 370/3/6 405/3/6
f 390/3/6 404/3/6 406/3/6
f 311/3/6 390/3/6 406/3/6
f 406/3/6 404/3/6 407/3/6
f 407/3/6 404/3/6 408/3/6
f 404/2/6 405/2/6 409/2/6
f 408/3/6 404/3/6 409/3/6
f 405/2/6 398/2/6 410/2/6
f 409/2/6 405/2/6 410/2/6
f 410/2/6 398/2/6 411/2/6
f 399/2/6 400/2/6 412/2/6
f 401/3/6 402/3/6 413/3/6
f 400/3/6 401/3/6 413/3/6
f 402/3/6 403/3/6 413/3/6
f 413/3/6 403/3/6 414/3/6
f 311/3/6 406/3/6 415/3/6
f 406/2/6 407/2/6 415/2/6
f 407/3/6 408/3/6 416/3/6
f 415/2/6 407/2/6 416/2/6
f 408/2/6 409/2/6 417/2/6
f 416/3/6 408/3/6 417/3/6
f 409/3/6 410/3/6 418/3/6
f 417/2/6 409/2/6 418/2/6
f 411/2/6 412/2/6 419/2/6
f 418/3/6 410/3/6 419/3/6
f 410/2/6 411/2/6 419/2/6
f 412/2/6 400/2/6 420/2/6
f 419/2/6 412/2/6 420/2/6
f 400/3/6 413/3/6 421/3/6
f 413/2/6 414/2/6 421/2/6
f 414/3/6 403/3/6 422/3/6
f 421/2/6 414/2/6 422/2/6
f 417/3/6 418/3/6 423/3/6
f 418/3/6 419/3/6 423/3/6
f 415/3/6 416/3/6 423/3/6
f 416/3/6 417/3/6 423/3/6
f 419/3/6 420/3/6 423/3/6
f 423/3/6 420/3/6 424/3/6
f 420/2/6 400/2/6 425/2/6
f 424/3/6 420/3/6 425/3/6
f 421/3/6 422/3/6 426/3/6
f 425/2/6 400/2/6 426/2/6
f 400/3/6 421/3/6 426/3/6
f 423/2/6 424/2/6 427/2/6
f 415/3/6 423/3/6 427/3/6
f 424/3/6 425/3/6 428/3/6
f 427/2/6 424/2/6 428/2/6
f 425/3/6 426/3/6 428/3/6
f 426/3/6 422/3/6 429/3/6
f 428/3/6 426/3/6 429/3/6
f 427/3/6 428/3/6 429/3/6
f 422/3/6 403/3/6 430/3/6
f 429/3/6 422/3/6 430/3/6
f 427/3/6 429/3/6 431/3/6
f 429/2/6 430/2/6 431/2/6
f 431/2/6 430/2/6 432/2/6
f 431/3/6 432/3/6 433/3/6
f 432/2/6 430/2/6 433/2/6
f 430/3/6 403/3/6 434/3/6
f 433/2/6 430/2/6 434/2/6
f 431/3/6 433/3/6 435/3/6
f 415/3/6 427/3/6 435/3/6
f 433/3/6 434/3/6 435/3/6
f 427/3/6 431/3/6 435/3/6
f 311/3/6 415/3/6 435/3/6
f 367/3/6 312/3/6 436/3/6
f 435/3/6 434/3/6 436/3/6
f 434/3/6 403/3/6 436/3/6
f 389/3/6 367/3/6 436/3/6
f 403/3/6 389/3/6 436/3/6
f 437/1/6 438/1/6 440/1/6
f 440/1/6 438/1/6 441/1/6
f 441/1/6 438/1/6 442/1/6
f 439/1/6 440/1/6 444/1/6
f 444/1/6 440/1/6 445/1/6
f 442/1/6 443/1/6 446/1/6
f 441/1/6 442/1/6 446/1/6
f 446/1/6 443/1/6 447/1/6
f 447/1/6 443/1/6 448/1/6
f 448/1/6 443/1/6 449/1/6
f 447/1/6 448/1/6 452/1/6
f 452/1/6 448/1/6 453/1/6
f 450/1/6 451/1/6 455/1/6
f 454/1/6 455/1/6 456/1/6
f 455/1/6 451/1/6 457/1/6
f 456/1/6 455/1/6 457/1/6
f 457/1/6 451/1/6 458/1/6
f 458/1/6 459/1/6 460/1/6
f 457/1/6 458/1/6 460/1/6
f 460/1/6 459/1/6 461/1/6
f 462/1/6 463/1/6 466/1/6
f 466/1/6 463/1/6 467/1/6
f 464/1/6 465/1/6 468/1/6
f 468/1/6 465/1/6 469/1/6
f 470/1/6 471/1/6 473/1/6
f 473/1/6 471/1/6 474/1/6
f 472/1/6 473/1/6 476/1/6
f 474/1/6 475/1/6 476/1/6
f 473/1/6 474/1/6 476/1/6
f 476/1/6 475/1/6 477/1/6
f 477/1/6 475/1/6 478/1/6
f 478/1/6 475/1/6 479/1/6
f 477/1/6 478/1/6 480/1/6
f 480/1/6 478/1/6 481/1/6
f 482/1/6 483/1/6 484/1/6
f 484/1/6 483/1/6 485/1/6
